<svg width="401" height="331" viewBox="0 0 401 331" fill="none" xmlns="http://www.w3.org/2000/svg">
<path fill-rule="evenodd" clip-rule="evenodd" d="M196.592 101.579C196.833 101.588 197.074 101.597 197.315 101.607C197.557 101.616 197.798 101.625 198.039 101.635C199.142 101.68 200.001 102.611 199.956 103.715C199.911 104.818 198.98 105.677 197.877 105.632C197.638 105.622 197.4 105.613 197.161 105.604C196.922 105.594 196.684 105.585 196.445 105.577C195.341 105.536 194.479 104.608 194.52 103.504C194.561 102.401 195.488 101.539 196.592 101.579ZM204.54 103.953C204.61 102.851 205.56 102.014 206.663 102.084C207.144 102.115 207.626 102.146 208.106 102.179C209.209 102.253 210.042 103.207 209.967 104.309C209.893 105.411 208.939 106.244 207.837 106.17C207.361 106.138 206.885 106.106 206.409 106.076C205.306 106.006 204.47 105.055 204.54 103.953ZM189.932 103.389C189.916 104.493 189.009 105.376 187.904 105.361C187.427 105.354 186.95 105.349 186.473 105.344C185.369 105.333 184.482 104.429 184.493 103.324C184.504 102.22 185.408 101.333 186.512 101.344C186.994 101.349 187.476 101.355 187.959 101.361C189.064 101.376 189.947 102.284 189.932 103.389ZM214.543 104.672C214.643 103.572 215.616 102.761 216.716 102.861C217.197 102.905 217.677 102.95 218.157 102.995C219.256 103.1 220.063 104.076 219.959 105.175C219.854 106.275 218.878 107.082 217.778 106.977C217.304 106.932 216.829 106.888 216.353 106.845C215.253 106.744 214.443 105.772 214.543 104.672ZM179.903 103.333C179.918 104.437 179.034 105.345 177.93 105.359C177.452 105.366 176.975 105.373 176.499 105.382C175.395 105.401 174.484 104.521 174.464 103.417C174.445 102.313 175.325 101.402 176.429 101.382C176.911 101.374 177.393 101.366 177.876 101.36C178.98 101.345 179.888 102.228 179.903 103.333ZM224.524 105.664C224.655 104.567 225.65 103.784 226.747 103.915C227.226 103.972 227.704 104.03 228.182 104.089C229.278 104.224 230.057 105.222 229.922 106.318C229.787 107.414 228.789 108.194 227.693 108.059C227.22 108 226.747 107.943 226.274 107.887C225.177 107.756 224.394 106.761 224.524 105.664ZM169.875 103.552C169.92 104.655 169.063 105.587 167.959 105.633C167.482 105.652 167.006 105.673 166.531 105.694C165.428 105.745 164.492 104.891 164.442 103.787C164.392 102.684 165.246 101.749 166.35 101.699C166.83 101.677 167.312 101.656 167.794 101.636C168.897 101.59 169.829 102.448 169.875 103.552ZM234.473 106.935C234.635 105.843 235.652 105.088 236.745 105.25C237.221 105.321 237.697 105.392 238.172 105.465C239.264 105.631 240.015 106.651 239.848 107.743C239.682 108.835 238.662 109.585 237.57 109.419C237.1 109.347 236.63 109.277 236.159 109.207C235.066 109.045 234.311 108.028 234.473 106.935ZM159.857 104.051C159.934 105.153 159.103 106.109 158.001 106.186C157.526 106.219 157.052 106.253 156.578 106.288C155.477 106.37 154.518 105.543 154.436 104.442C154.354 103.34 155.181 102.381 156.283 102.299C156.762 102.264 157.242 102.229 157.722 102.196C158.824 102.119 159.78 102.949 159.857 104.051ZM244.381 108.492C244.575 107.405 245.613 106.68 246.701 106.874C247.174 106.959 247.647 107.044 248.119 107.13C249.205 107.329 249.925 108.371 249.726 109.457C249.528 110.544 248.486 111.264 247.399 111.065C246.933 110.98 246.466 110.896 245.998 110.812C244.911 110.618 244.187 109.58 244.381 108.492ZM149.859 104.839C149.969 105.938 149.166 106.917 148.067 107.027C147.594 107.074 147.122 107.122 146.651 107.171C145.552 107.285 144.569 106.487 144.455 105.388C144.341 104.29 145.139 103.306 146.238 103.192C146.715 103.143 147.192 103.094 147.671 103.047C148.77 102.937 149.75 103.739 149.859 104.839ZM254.235 110.342C254.462 109.261 255.522 108.568 256.603 108.795C257.072 108.894 257.541 108.993 258.009 109.094C259.089 109.325 259.776 110.389 259.545 111.469C259.313 112.549 258.249 113.236 257.17 113.005C256.708 112.906 256.245 112.807 255.781 112.71C254.7 112.483 254.008 111.423 254.235 110.342ZM139.892 105.922C140.035 107.017 139.262 108.021 138.167 108.164C137.697 108.225 137.228 108.287 136.76 108.351C135.666 108.498 134.658 107.731 134.511 106.636C134.363 105.541 135.131 104.534 136.225 104.386C136.699 104.323 137.174 104.26 137.65 104.197C138.745 104.055 139.749 104.827 139.892 105.922ZM264.022 112.493C264.284 111.42 265.365 110.762 266.439 111.023C266.903 111.136 267.367 111.25 267.83 111.365C268.902 111.631 269.555 112.716 269.289 113.788C269.023 114.86 267.938 115.513 266.866 115.247C266.409 115.133 265.951 115.021 265.493 114.909C264.42 114.648 263.761 113.566 264.022 112.493ZM129.967 107.312C130.145 108.402 129.405 109.429 128.315 109.607C127.849 109.683 127.384 109.76 126.92 109.838C125.83 110.02 124.799 109.285 124.617 108.196C124.434 107.106 125.169 106.075 126.258 105.893C126.729 105.814 127.2 105.736 127.672 105.659C128.762 105.482 129.79 106.221 129.967 107.312ZM273.728 114.957C274.025 113.893 275.128 113.271 276.192 113.568C276.658 113.698 277.123 113.829 277.587 113.961C278.65 114.263 279.266 115.369 278.964 116.432C278.662 117.494 277.556 118.111 276.493 117.808C276.036 117.678 275.577 117.549 275.117 117.421C274.053 117.124 273.432 116.021 273.728 114.957ZM120.1 109.019C120.314 110.102 119.609 111.154 118.525 111.368C118.057 111.461 117.59 111.554 117.123 111.648C116.041 111.868 114.986 111.168 114.766 110.085C114.547 109.003 115.247 107.947 116.33 107.728C116.802 107.632 117.276 107.538 117.751 107.444C118.834 107.23 119.886 107.935 120.1 109.019ZM283.367 117.755C283.701 116.703 284.826 116.12 285.878 116.455C286.34 116.601 286.8 116.749 287.258 116.897C288.309 117.237 288.886 118.365 288.546 119.416C288.206 120.467 287.078 121.043 286.027 120.703C285.575 120.557 285.122 120.412 284.667 120.267C283.614 119.933 283.032 118.808 283.367 117.755ZM110.275 111.065C110.527 112.14 109.859 113.217 108.784 113.469C108.32 113.578 107.856 113.688 107.394 113.799C106.32 114.056 105.241 113.395 104.983 112.321C104.725 111.247 105.386 110.167 106.461 109.909C106.929 109.797 107.399 109.685 107.871 109.575C108.946 109.322 110.022 109.99 110.275 111.065ZM100.532 113.465C100.825 114.53 100.199 115.631 99.1338 115.924C98.6768 116.049 98.2211 116.176 97.7668 116.304C96.7035 116.603 95.5991 115.983 95.3003 114.919C95.0014 113.856 95.6212 112.752 96.6845 112.453C97.1461 112.323 97.609 112.194 98.0733 112.067C99.1383 111.774 100.239 112.4 100.532 113.465ZM292.895 120.9C293.269 119.861 294.415 119.322 295.454 119.696C295.907 119.859 296.359 120.023 296.809 120.188C297.846 120.568 298.379 121.717 297.999 122.754C297.619 123.791 296.47 124.324 295.433 123.944C294.99 123.782 294.545 123.62 294.099 123.46C293.06 123.085 292.521 121.94 292.895 120.9ZM90.9045 116.237C91.2408 117.29 90.6605 118.415 89.6084 118.751C89.1606 118.895 88.7144 119.039 88.2697 119.184C87.2196 119.527 86.0905 118.953 85.7478 117.903C85.405 116.853 85.9784 115.724 87.0285 115.381C87.481 115.234 87.935 115.087 88.3905 114.941C89.4426 114.605 90.5681 115.185 90.9045 116.237ZM302.28 124.408C302.696 123.385 303.863 122.893 304.886 123.309C305.329 123.49 305.77 123.671 306.21 123.853C307.231 124.276 307.715 125.446 307.292 126.466C306.87 127.487 305.7 127.971 304.679 127.549C304.247 127.37 303.813 127.191 303.378 127.014C302.355 126.598 301.863 125.431 302.28 124.408ZM81.4006 119.414C81.7839 120.45 81.2549 121.6 80.2189 121.984C79.7711 122.149 79.3249 122.316 78.8806 122.484C77.8473 122.874 76.6932 122.353 76.3028 121.32C75.9124 120.287 76.4335 119.133 77.4668 118.742C77.9197 118.571 78.3744 118.401 78.8309 118.232C79.8668 117.849 81.0173 118.378 81.4006 119.414ZM311.51 128.308C311.972 127.305 313.16 126.866 314.163 127.328C314.605 127.532 315.045 127.736 315.484 127.942C316.484 128.411 316.914 129.602 316.445 130.602C315.976 131.602 314.786 132.033 313.785 131.564C313.355 131.362 312.923 131.161 312.49 130.961C311.486 130.499 311.048 129.311 311.51 128.308ZM72.0377 123.034C72.4723 124.05 72.0015 125.225 70.9861 125.66C70.5523 125.846 70.1205 126.033 69.6907 126.22C68.6786 126.663 67.4995 126.201 67.0571 125.189C66.6148 124.177 67.0766 122.998 68.0887 122.555C68.5278 122.363 68.9689 122.172 69.412 121.983C70.4274 121.548 71.603 122.019 72.0377 123.034ZM320.565 132.641C321.077 131.662 322.286 131.283 323.264 131.795C323.692 132.018 324.117 132.242 324.54 132.468C325.515 132.987 325.884 134.198 325.365 135.173C324.846 136.148 323.634 136.517 322.659 135.998C322.245 135.778 321.829 135.558 321.411 135.34C320.432 134.828 320.054 133.619 320.565 132.641ZM329.352 137.418C329.918 136.469 331.145 136.159 332.094 136.725C332.515 136.976 332.934 137.229 333.35 137.482C334.294 138.057 334.593 139.287 334.019 140.23C333.444 141.174 332.214 141.473 331.27 140.899C330.864 140.652 330.455 140.405 330.044 140.16C329.096 139.594 328.786 138.366 329.352 137.418ZM62.909 127.119C63.4001 128.109 62.9962 129.309 62.0068 129.8C61.5779 130.013 61.1514 130.227 60.7273 130.442C59.7423 130.942 58.5386 130.548 58.0389 129.563C57.5391 128.578 57.9325 127.375 58.9175 126.875C59.3521 126.654 59.7891 126.435 60.2284 126.217C61.2178 125.726 62.4179 126.13 62.909 127.119ZM337.884 142.729C338.51 141.819 339.756 141.589 340.666 142.215C341.064 142.49 341.459 142.765 341.852 143.041C342.756 143.677 342.973 144.924 342.338 145.828C341.702 146.731 340.455 146.948 339.551 146.313C339.169 146.044 338.785 145.777 338.397 145.51C337.487 144.884 337.258 143.638 337.884 142.729ZM53.9921 131.756C54.5463 132.711 54.2211 133.935 53.2656 134.489C52.8588 134.725 52.4547 134.962 52.0532 135.2C51.1034 135.764 49.8763 135.451 49.3125 134.501C48.7487 133.552 49.0617 132.325 50.0115 131.761C50.4245 131.516 50.8402 131.272 51.2585 131.029C52.214 130.475 53.4378 130.8 53.9921 131.756ZM346.005 148.583C346.699 147.723 347.958 147.588 348.818 148.281C349.2 148.59 349.579 148.899 349.955 149.21C350.807 149.913 350.926 151.174 350.223 152.025C349.519 152.877 348.259 152.997 347.407 152.293C347.044 151.993 346.677 151.694 346.307 151.395C345.447 150.702 345.312 149.443 346.005 148.583ZM45.443 136.966C46.0679 137.876 45.8361 139.121 44.9253 139.746C44.5333 140.015 44.1446 140.285 43.7592 140.556C42.856 141.192 41.6083 140.975 40.9725 140.072C40.3368 139.169 40.5536 137.921 41.4568 137.286C41.8555 137.005 42.2573 136.726 42.6624 136.448C43.5732 135.823 44.8181 136.055 45.443 136.966ZM353.646 155.076C354.414 154.282 355.68 154.261 356.474 155.029C356.824 155.368 357.17 155.708 357.512 156.048C358.295 156.828 358.297 158.094 357.518 158.877C356.739 159.659 355.472 159.662 354.69 158.883C354.361 158.555 354.029 158.229 353.692 157.904C352.899 157.136 352.878 155.869 353.646 155.076ZM37.3241 142.849C38.0287 143.7 37.9103 144.96 37.0596 145.665C36.6992 145.964 36.3426 146.263 35.9897 146.564C35.1492 147.281 33.8869 147.18 33.1702 146.34C32.4535 145.5 32.5538 144.237 33.3943 143.52C33.7619 143.207 34.1331 142.895 34.5081 142.585C35.3587 141.88 36.6195 141.998 37.3241 142.849ZM360.633 162.274C361.484 161.569 362.745 161.688 363.45 162.538C363.76 162.913 364.066 163.289 364.368 163.666C365.057 164.529 364.917 165.788 364.054 166.477C363.191 167.167 361.933 167.027 361.243 166.164C360.956 165.805 360.665 165.447 360.369 165.09C359.664 164.239 359.783 162.978 360.633 162.274ZM29.8018 149.486C30.5956 150.254 30.6163 151.521 29.8482 152.314C29.5257 152.648 29.2076 152.982 28.894 153.318C28.1398 154.125 26.8742 154.168 26.0672 153.413C25.2601 152.659 25.2172 151.394 25.9713 150.587C26.3011 150.234 26.6352 149.882 26.9738 149.533C27.7419 148.739 29.0081 148.718 29.8018 149.486ZM366.726 170.231C367.664 169.648 368.897 169.935 369.48 170.873C369.74 171.29 369.994 171.708 370.242 172.128C370.805 173.078 370.491 174.305 369.54 174.868C368.59 175.431 367.363 175.117 366.8 174.166C366.567 173.772 366.328 173.378 366.084 172.986C365.5 172.048 365.788 170.814 366.726 170.231ZM23.1134 156.95C24.0036 157.604 24.195 158.855 23.5411 159.746C23.2673 160.118 22.9987 160.492 22.7355 160.867C22.1009 161.771 20.8536 161.99 19.9495 161.355C19.0454 160.721 18.8269 159.473 19.4614 158.569C19.7414 158.17 20.0268 157.773 20.3175 157.377C20.9715 156.487 22.2233 156.296 23.1134 156.95ZM371.608 178.978C372.63 178.557 373.799 179.045 374.219 180.066C374.407 180.523 374.588 180.981 374.763 181.44C375.157 182.473 374.639 183.628 373.606 184.021C372.574 184.415 371.419 183.897 371.025 182.865C370.863 182.438 370.694 182.013 370.52 181.588C370.1 180.567 370.587 179.398 371.608 178.978ZM17.5702 165.293C18.5563 165.791 18.952 166.994 18.4542 167.98C18.2472 168.39 18.0463 168.801 17.8515 169.214C17.3797 170.212 16.1876 170.64 15.1889 170.168C14.1902 169.696 13.763 168.504 14.2347 167.505C14.4446 167.061 14.6609 166.618 14.8835 166.177C15.3813 165.191 16.5842 164.796 17.5702 165.293ZM374.885 188.439C375.969 188.227 377.02 188.933 377.232 190.017C377.328 190.505 377.416 190.993 377.496 191.482C377.676 192.572 376.938 193.601 375.848 193.781C374.758 193.96 373.729 193.222 373.55 192.133C373.476 191.683 373.395 191.234 373.307 190.786C373.095 189.702 373.801 188.651 374.885 188.439ZM13.5728 174.474C14.6372 174.769 15.2606 175.871 14.9653 176.935C14.8432 177.375 14.7279 177.817 14.6194 178.259C14.3562 179.332 13.2733 179.988 12.2005 179.725C11.1277 179.462 10.4714 178.379 10.7346 177.306C10.8527 176.825 10.9782 176.345 11.1109 175.866C11.4062 174.802 12.5084 174.178 13.5728 174.474ZM376.175 198.368C377.279 198.394 378.154 199.309 378.128 200.414C378.123 200.663 378.115 200.913 378.105 201.164C378.095 201.414 378.084 201.663 378.07 201.913C378.01 203.016 377.068 203.861 375.965 203.801C374.862 203.741 374.016 202.799 374.076 201.696C374.089 201.467 374.099 201.238 374.108 201.009C374.117 200.78 374.124 200.551 374.129 200.322C374.155 199.218 375.07 198.343 376.175 198.368ZM11.5209 184.274C12.6239 184.334 13.4694 185.276 13.4094 186.379C13.397 186.608 13.3863 186.837 13.3775 187.066C13.3686 187.295 13.3616 187.524 13.3563 187.753C13.331 188.857 12.4152 189.732 11.3109 189.707C10.2067 189.681 9.33201 188.766 9.35735 187.661C9.36309 187.412 9.37078 187.162 9.38045 186.911C9.39012 186.661 9.40174 186.412 9.41531 186.162C9.47528 185.059 10.418 184.214 11.5209 184.274ZM375.285 208.35C376.358 208.613 377.014 209.696 376.751 210.769C376.633 211.25 376.507 211.73 376.375 212.209C376.079 213.273 374.977 213.897 373.913 213.601C372.848 213.306 372.225 212.204 372.52 211.14C372.642 210.699 372.758 210.258 372.866 209.816C373.129 208.743 374.212 208.087 375.285 208.35ZM11.6374 194.294C12.7272 194.115 13.7563 194.853 13.9359 195.942C14.0099 196.392 14.0908 196.841 14.1786 197.289C14.3909 198.373 13.6842 199.424 12.6002 199.636C11.5163 199.848 10.4654 199.141 10.2532 198.058C10.1577 197.57 10.0697 197.082 9.98909 196.593C9.80953 195.503 10.5475 194.474 11.6374 194.294ZM372.297 217.907C373.295 218.379 373.723 219.571 373.251 220.57C373.041 221.014 372.825 221.457 372.602 221.898C372.104 222.884 370.901 223.279 369.915 222.782C368.929 222.284 368.534 221.081 369.031 220.095C369.238 219.685 369.439 219.274 369.634 218.861C370.106 217.863 371.298 217.435 372.297 217.907ZM13.8791 204.054C14.9113 203.66 16.0669 204.178 16.4602 205.21C16.6225 205.637 16.7911 206.062 16.9658 206.487C17.3861 207.508 16.8986 208.677 15.8771 209.097C14.8556 209.517 13.6869 209.03 13.2666 208.009C13.0787 207.552 12.8972 207.094 12.7223 206.635C12.329 205.602 12.847 204.447 13.8791 204.054ZM367.536 226.72C368.44 227.354 368.659 228.602 368.024 229.506C367.744 229.905 367.459 230.302 367.168 230.698C366.514 231.588 365.262 231.779 364.372 231.125C363.482 230.471 363.291 229.22 363.945 228.329C364.218 227.957 364.487 227.583 364.75 227.208C365.385 226.304 366.632 226.085 367.536 226.72ZM17.9453 213.207C18.8957 212.644 20.1224 212.958 20.6853 213.909C20.9188 214.303 21.1577 214.697 21.4019 215.089C21.9852 216.027 21.6977 217.261 20.7597 217.844C19.8217 218.427 18.5885 218.14 18.0052 217.202C17.7459 216.785 17.492 216.367 17.2437 215.947C16.6808 214.997 16.9949 213.77 17.9453 213.207ZM361.418 234.661C362.225 235.416 362.268 236.681 361.514 237.488C361.184 237.841 360.85 238.193 360.512 238.542C359.744 239.336 358.478 239.357 357.684 238.589C356.89 237.821 356.869 236.554 357.637 235.761C357.96 235.427 358.278 235.093 358.592 234.757C359.346 233.95 360.611 233.907 361.418 234.661ZM23.4317 221.598C24.2945 220.908 25.5531 221.048 26.2427 221.911C26.5295 222.27 26.8208 222.628 27.1166 222.985C27.8212 223.836 27.7028 225.097 26.8521 225.801C26.0014 226.506 24.7406 226.387 24.036 225.537C23.7255 225.162 23.4195 224.786 23.118 224.409C22.4284 223.546 22.5688 222.287 23.4317 221.598ZM354.315 241.735C355.032 242.575 354.932 243.838 354.091 244.554C353.724 244.868 353.352 245.18 352.978 245.49C352.127 246.195 350.866 246.077 350.161 245.226C349.457 244.375 349.575 243.114 350.426 242.41C350.786 242.111 351.143 241.812 351.496 241.511C352.336 240.794 353.599 240.894 354.315 241.735ZM29.9675 229.198C30.747 228.416 32.0133 228.413 32.796 229.192C33.1245 229.52 33.457 229.846 33.7932 230.171C34.587 230.939 34.6077 232.206 33.8396 232.999C33.0714 233.793 31.8053 233.814 31.0115 233.046C30.6617 232.707 30.3156 232.367 29.9734 232.027C29.1907 231.247 29.1881 229.981 29.9675 229.198ZM346.513 248.003C347.149 248.906 346.932 250.154 346.029 250.789C345.63 251.07 345.228 251.349 344.823 251.627C343.912 252.252 342.667 252.02 342.043 251.109C341.418 250.199 341.649 248.954 342.56 248.329C342.952 248.06 343.341 247.79 343.726 247.519C344.63 246.883 345.877 247.1 346.513 248.003ZM37.2628 236.05C37.9664 235.198 39.2271 235.078 40.0785 235.782C40.4419 236.082 40.8086 236.381 41.1786 236.68C42.0385 237.373 42.1735 238.632 41.4801 239.492C40.7868 240.352 39.5277 240.487 38.6678 239.794C38.2855 239.485 37.9064 239.176 37.5305 238.865C36.6791 238.162 36.5592 236.901 37.2628 236.05ZM45.1479 242.247C45.7834 241.344 47.0309 241.127 47.9344 241.762C48.3162 242.031 48.7009 242.298 49.0883 242.565C49.9981 243.191 50.2279 244.437 49.6016 245.346C48.9752 246.256 47.7299 246.486 46.8201 245.86C46.4218 245.585 46.0261 245.31 45.6333 245.034C44.7298 244.398 44.5125 243.151 45.1479 242.247ZM338.173 253.573C338.737 254.523 338.424 255.75 337.474 256.314C337.061 256.559 336.645 256.803 336.227 257.046C335.272 257.6 334.048 257.275 333.493 256.319C332.939 255.364 333.264 254.14 334.22 253.586C334.627 253.35 335.031 253.113 335.432 252.874C336.382 252.311 337.609 252.624 338.173 253.573ZM53.467 247.844C54.0413 246.901 55.2718 246.602 56.2153 247.176C56.6215 247.423 57.0302 247.67 57.4414 247.915C58.3899 248.481 58.7 249.709 58.134 250.657C57.568 251.606 56.3402 251.916 55.3917 251.35C54.9706 251.099 54.5518 250.846 54.1355 250.593C53.192 250.018 52.8927 248.788 53.467 247.844ZM329.447 258.512C329.947 259.497 329.553 260.7 328.568 261.2C328.133 261.421 327.697 261.64 327.257 261.858C326.268 262.349 325.068 261.945 324.577 260.956C324.085 259.966 324.489 258.766 325.479 258.275C325.908 258.062 326.334 257.848 326.758 257.633C327.743 257.133 328.947 257.527 329.447 258.512ZM62.1207 252.902C62.6399 251.927 63.8511 251.558 64.8261 252.077C65.2401 252.297 65.6562 252.517 66.0743 252.735C67.0532 253.247 67.4319 254.456 66.9201 255.434C66.4083 256.413 65.1999 256.792 64.2211 256.28C63.794 256.057 63.3689 255.833 62.946 255.607C61.971 255.088 61.6015 253.877 62.1207 252.902ZM320.428 262.886C320.871 263.898 320.409 265.077 319.397 265.52C318.958 265.712 318.517 265.902 318.074 266.092C317.058 266.527 315.883 266.056 315.448 265.041C315.013 264.025 315.484 262.85 316.5 262.415C316.933 262.229 317.365 262.042 317.795 261.855C318.807 261.412 319.986 261.874 320.428 262.886ZM71.0402 257.473C71.5092 256.473 72.7001 256.042 73.7001 256.511C74.1302 256.713 74.5621 256.914 74.9959 257.114C75.9991 257.576 76.4378 258.764 75.9756 259.767C75.5135 260.77 74.3256 261.209 73.3223 260.747C72.8803 260.543 72.4401 260.339 72.0017 260.133C71.0017 259.664 70.5712 258.473 71.0402 257.473ZM311.183 266.755C311.573 267.788 311.052 268.942 310.019 269.333C309.566 269.504 309.111 269.674 308.655 269.843C307.619 270.226 306.468 269.697 306.085 268.661C305.702 267.625 306.231 266.475 307.267 266.091C307.715 265.926 308.161 265.759 308.605 265.591C309.638 265.201 310.792 265.722 311.183 266.755ZM80.1932 261.609C80.616 260.588 81.786 260.104 82.8064 260.526C83.2386 260.705 83.6724 260.884 84.1078 261.061C85.1308 261.477 85.6225 262.644 85.206 263.667C84.7894 264.69 83.6224 265.182 82.5994 264.766C82.1565 264.585 81.7152 264.404 81.2754 264.222C80.255 263.799 79.7705 262.629 80.1932 261.609ZM301.738 270.172C302.081 271.222 301.507 272.351 300.457 272.694C300.005 272.841 299.551 272.988 299.095 273.134C298.043 273.47 296.917 272.89 296.581 271.838C296.245 270.785 296.825 269.66 297.877 269.324C298.325 269.18 298.771 269.036 299.216 268.891C300.266 268.548 301.395 269.122 301.738 270.172ZM89.4869 265.321C89.867 264.284 91.0158 263.751 92.0529 264.131C92.496 264.293 92.9406 264.455 93.3865 264.615C94.4258 264.99 94.9649 266.135 94.5907 267.175C94.2166 268.214 93.0707 268.753 92.0315 268.379C91.5785 268.216 91.1268 268.052 90.6766 267.887C89.6395 267.507 89.1069 266.358 89.4869 265.321ZM292.185 273.156C292.484 274.219 291.864 275.323 290.801 275.622C290.498 275.707 290.194 275.792 289.89 275.876C289.731 275.92 289.572 275.964 289.412 276.008C288.347 276.301 287.246 275.675 286.954 274.61C286.661 273.545 287.287 272.444 288.352 272.151C288.809 272.026 289.264 271.899 289.719 271.771C290.782 271.472 291.886 272.092 292.185 273.156ZM282.503 275.754C282.761 276.828 282.099 277.908 281.025 278.166C280.556 278.278 280.086 278.39 279.615 278.5C278.539 278.753 277.463 278.085 277.211 277.01C276.959 275.935 277.626 274.858 278.702 274.606C279.166 274.497 279.629 274.387 280.091 274.276C281.165 274.018 282.245 274.68 282.503 275.754ZM98.9398 268.659C99.2798 267.608 100.407 267.032 101.458 267.372C101.91 267.518 102.364 267.663 102.818 267.808C103.871 268.142 104.453 269.267 104.119 270.319C103.785 271.372 102.66 271.954 101.607 271.62C101.146 271.474 100.686 271.326 100.227 271.178C99.1762 270.838 98.5998 269.71 98.9398 268.659ZM108.522 271.643C108.824 270.581 109.93 269.964 110.993 270.267C111.45 270.397 111.909 270.526 112.368 270.654C113.432 270.951 114.054 272.054 113.757 273.118C113.46 274.182 112.357 274.804 111.293 274.507C110.827 274.377 110.362 274.246 109.898 274.114C108.836 273.812 108.22 272.706 108.522 271.643ZM272.719 277.99C272.939 279.072 272.239 280.128 271.156 280.347C270.683 280.443 270.21 280.537 269.735 280.631C268.651 280.845 267.599 280.14 267.386 279.056C267.172 277.972 267.877 276.921 268.961 276.707C269.429 276.614 269.896 276.521 270.362 276.427C271.445 276.207 272.5 276.907 272.719 277.99ZM118.197 274.287C118.463 273.215 119.548 272.562 120.62 272.828C121.076 272.942 121.534 273.054 121.993 273.166C123.066 273.427 123.724 274.509 123.463 275.582C123.202 276.655 122.12 277.313 121.047 277.052C120.582 276.939 120.119 276.825 119.656 276.71C118.584 276.444 117.931 275.359 118.197 274.287ZM262.869 279.879C263.052 280.969 262.317 282 261.227 282.182C260.757 282.261 260.286 282.339 259.814 282.416C258.724 282.593 257.696 281.854 257.518 280.763C257.341 279.673 258.081 278.645 259.171 278.468C259.637 278.392 260.102 278.315 260.566 278.237C261.655 278.055 262.686 278.79 262.869 279.879ZM127.941 276.606C128.173 275.526 129.236 274.839 130.316 275.07C130.778 275.169 131.241 275.268 131.704 275.365C132.785 275.592 133.478 276.652 133.251 277.733C133.024 278.814 131.964 279.507 130.883 279.28C130.413 279.181 129.945 279.082 129.477 278.981C128.397 278.75 127.709 277.686 127.941 276.606ZM252.975 281.439C253.123 282.534 252.355 283.541 251.26 283.688C250.786 283.752 250.311 283.815 249.836 283.877C248.74 284.02 247.737 283.248 247.594 282.153C247.451 281.058 248.223 280.054 249.318 279.911C249.788 279.85 250.257 279.788 250.725 279.724C251.82 279.577 252.827 280.344 252.975 281.439ZM243.031 282.687C243.145 283.785 242.347 284.768 241.248 284.883C240.771 284.932 240.293 284.981 239.815 285.028C238.716 285.138 237.736 284.335 237.626 283.236C237.517 282.137 238.319 281.157 239.418 281.048C239.891 281.001 240.363 280.953 240.835 280.904C241.933 280.79 242.917 281.588 243.031 282.687ZM137.759 278.618C137.958 277.531 139 276.811 140.086 277.01C140.321 277.053 140.557 277.096 140.792 277.138C141.024 277.18 141.255 277.221 141.487 277.263C142.575 277.457 143.299 278.495 143.105 279.583C142.911 280.67 141.872 281.395 140.785 281.201C140.311 281.116 139.839 281.031 139.367 280.945C138.28 280.746 137.561 279.704 137.759 278.618ZM147.637 280.332C147.804 279.24 148.824 278.49 149.916 278.656C150.386 278.728 150.856 278.798 151.327 278.868C152.42 279.03 153.174 280.047 153.012 281.14C152.85 282.232 151.833 282.987 150.741 282.825C150.264 282.754 149.788 282.683 149.313 282.61C148.221 282.444 147.471 281.424 147.637 280.332ZM233.05 283.633C233.131 284.735 232.305 285.694 231.203 285.776C230.724 285.811 230.244 285.846 229.763 285.879C228.661 285.956 227.706 285.126 227.629 284.024C227.551 282.922 228.382 281.966 229.484 281.889C229.959 281.856 230.434 281.822 230.907 281.786C232.009 281.705 232.968 282.532 233.05 283.633ZM157.563 281.757C157.699 280.66 158.697 279.881 159.793 280.016C160.265 280.075 160.738 280.132 161.212 280.188C162.309 280.319 163.092 281.314 162.961 282.411C162.831 283.508 161.836 284.291 160.739 284.16C160.26 284.103 159.781 284.045 159.304 283.986C158.207 283.851 157.428 282.853 157.563 281.757ZM223.043 284.288C223.093 285.391 222.239 286.326 221.136 286.376C220.947 286.385 220.757 286.393 220.568 286.402C220.276 286.415 219.984 286.427 219.692 286.439C218.588 286.485 217.657 285.627 217.611 284.523C217.565 283.42 218.423 282.488 219.527 282.442C220.003 282.423 220.479 282.402 220.955 282.38C222.058 282.33 222.993 283.184 223.043 284.288ZM167.527 282.9C167.631 281.8 168.607 280.993 169.707 281.098C170.182 281.143 170.657 281.187 171.132 281.23C172.232 281.33 173.043 282.303 172.943 283.403C172.842 284.503 171.869 285.314 170.769 285.214C170.289 285.17 169.808 285.125 169.329 285.08C168.229 284.975 167.422 283.999 167.527 282.9ZM213.021 284.658C213.041 285.762 212.161 286.673 211.057 286.693C210.575 286.701 210.093 286.709 209.61 286.715C208.505 286.73 207.598 285.847 207.583 284.742C207.568 283.638 208.451 282.73 209.556 282.715C210.033 282.709 210.51 282.702 210.987 282.693C212.091 282.674 213.002 283.554 213.021 284.658ZM177.518 283.766C177.593 282.664 178.547 281.831 179.649 281.905C180.124 281.937 180.6 281.969 181.077 281.999C182.179 282.069 183.016 283.019 182.946 284.122C182.876 285.224 181.925 286.061 180.823 285.991C180.341 285.96 179.86 285.929 179.379 285.896C178.277 285.822 177.444 284.868 177.518 283.766ZM202.993 284.751C202.982 285.855 202.078 286.742 200.973 286.731C200.491 286.726 200.009 286.72 199.526 286.714C198.422 286.699 197.539 285.791 197.554 284.686C197.569 283.582 198.477 282.699 199.581 282.714C200.059 282.721 200.536 282.726 201.013 282.731C202.117 282.742 203.004 283.646 202.993 284.751ZM187.53 284.36C187.574 283.257 188.505 282.398 189.609 282.443C189.847 282.453 190.086 282.462 190.325 282.471C190.563 282.481 190.802 282.49 191.04 282.498C192.144 282.539 193.006 283.467 192.966 284.571C192.925 285.674 191.997 286.536 190.894 286.496C190.762 286.491 190.631 286.486 190.499 286.481C190.389 286.477 190.28 286.473 190.17 286.468C189.929 286.459 189.688 286.45 189.447 286.44C188.343 286.395 187.485 285.464 187.53 284.36Z" fill="url(#paint0_linear_5954_26377)"/>
<path fill-rule="evenodd" clip-rule="evenodd" d="M237.985 57.599C238.207 57.6773 238.428 57.7559 238.649 57.8349C238.87 57.9139 239.091 57.9931 239.312 58.0727C240.351 58.4468 240.891 59.5926 240.516 60.6319C240.142 61.6712 238.996 62.2103 237.957 61.8362C237.74 61.7579 237.522 61.6798 237.304 61.602C237.086 61.5242 236.868 61.4468 236.65 61.3696C235.609 61.001 235.064 59.858 235.433 58.8168C235.801 57.7756 236.944 57.2303 237.985 57.599ZM231.319 57.4333C230.983 58.4857 229.858 59.0671 228.806 58.7318C228.365 58.5914 227.925 58.4523 227.484 58.3145C226.43 57.9849 225.842 56.863 226.172 55.8088C226.502 54.7545 227.624 54.1671 228.678 54.4968C229.125 54.6367 229.573 54.7779 230.02 54.9205C231.073 55.2558 231.654 56.3808 231.319 57.4333ZM244.576 62.1667C244.983 61.1399 246.146 60.6375 247.172 61.0446C247.609 61.2177 248.045 61.3917 248.48 61.5668C249.504 61.9794 250 63.1445 249.588 64.1691C249.175 65.1938 248.01 65.6899 246.986 65.2773C246.557 65.1049 246.128 64.9335 245.698 64.763C244.672 64.356 244.169 63.1936 244.576 62.1667ZM222.008 54.5799C221.713 55.6443 220.611 56.2676 219.546 55.9722C219.101 55.8487 218.656 55.7266 218.212 55.6057C217.146 55.3161 216.516 54.2173 216.806 53.1513C217.096 52.0854 218.194 51.4561 219.26 51.7457C219.712 51.8684 220.164 51.9925 220.616 52.1179C221.68 52.4133 222.304 53.5156 222.008 54.5799ZM253.588 65.8553C254.034 64.8446 255.214 64.3863 256.225 64.8318C256.654 65.021 257.083 65.2111 257.51 65.4023C258.518 65.8533 258.97 67.0363 258.519 68.0446C258.068 69.0529 256.885 69.5047 255.877 69.0537C255.456 68.8655 255.035 68.6783 254.612 68.4921C253.601 68.0466 253.143 66.8661 253.588 65.8553ZM212.598 52.0817C212.343 53.1565 211.266 53.8217 210.191 53.5674C209.742 53.4612 209.294 53.3565 208.846 53.253C207.769 53.0047 207.098 51.9308 207.347 50.8545C207.595 49.7782 208.669 49.1071 209.745 49.3555C210.201 49.4606 210.656 49.567 211.112 49.6749C212.187 49.9292 212.852 51.0068 212.598 52.0817ZM262.453 69.8821C262.937 68.8892 264.135 68.4766 265.127 68.9606C265.548 69.1657 265.968 69.3719 266.387 69.579C267.378 70.0684 267.784 71.2679 267.294 72.2581C266.805 73.2483 265.605 73.6543 264.615 73.1648C264.203 72.961 263.789 72.7582 263.375 72.5562C262.382 72.0723 261.969 70.8751 262.453 69.8821ZM203.099 49.9489C202.887 51.0329 201.837 51.7398 200.753 51.5277C200.301 51.4394 199.85 51.3525 199.399 51.267C198.314 51.0611 197.601 50.0144 197.807 48.9292C198.013 47.844 199.06 47.1312 200.145 47.3371C200.603 47.424 201.062 47.5124 201.521 47.6021C202.605 47.8142 203.311 48.8648 203.099 49.9489ZM271.154 74.2471C271.677 73.2739 272.889 72.9086 273.863 73.431C274.274 73.6521 274.685 73.8741 275.095 74.0971C276.065 74.625 276.424 75.8396 275.896 76.8098C275.368 77.78 274.153 78.1385 273.183 77.6106C272.78 77.3912 272.376 77.1728 271.971 76.9553C270.997 76.4328 270.632 75.2203 271.154 74.2471ZM193.528 48.1929C193.359 49.2845 192.338 50.033 191.246 49.8646C190.793 49.7947 190.34 49.7262 189.887 49.6591C188.795 49.497 188.04 48.4799 188.202 47.3873C188.364 46.2947 189.381 45.5403 190.474 45.7023C190.934 45.7706 191.395 45.8403 191.856 45.9114C192.948 46.0797 193.696 47.1012 193.528 48.1929ZM279.674 78.9504C280.235 77.999 281.461 77.6825 282.413 78.2436C282.814 78.4805 283.215 78.7184 283.614 78.9571C284.563 79.5237 284.872 80.7517 284.305 81.6998C283.739 82.648 282.511 82.9573 281.563 82.3907C281.17 82.156 280.776 81.9221 280.381 81.6891C279.429 81.128 279.113 79.9018 279.674 78.9504ZM183.897 46.8261C183.774 47.9238 182.784 48.7138 181.687 48.5906C181.232 48.5396 180.777 48.49 180.323 48.4418C179.225 48.3252 178.429 47.3402 178.545 46.2418C178.662 45.1434 179.647 44.3475 180.745 44.4641C181.207 44.5132 181.67 44.5636 182.133 44.6156C183.23 44.7387 184.02 45.7284 183.897 46.8261ZM287.992 83.9921C288.592 83.0647 289.83 82.7991 290.758 83.399C291.149 83.6519 291.539 83.9057 291.927 84.1604C292.851 84.7658 293.109 86.0055 292.504 86.9294C291.898 87.8533 290.659 88.1114 289.735 87.506C289.353 87.2557 288.97 87.0063 288.585 86.7577C287.658 86.1578 287.392 84.9196 287.992 83.9921ZM174.217 45.8618C174.141 46.9637 173.186 47.7953 172.084 47.7191C171.623 47.6872 171.162 47.6568 170.702 47.6278C169.599 47.5586 168.762 46.6087 168.831 45.5063C168.9 44.4039 169.85 43.5664 170.952 43.6357C171.421 43.6652 171.89 43.6961 172.36 43.7286C173.462 43.8048 174.293 44.7599 174.217 45.8618ZM296.094 89.3767C296.733 88.4757 297.982 88.2632 298.883 88.9022C299.267 89.1745 299.649 89.4476 300.03 89.7216C300.927 90.3662 301.132 91.6158 300.488 92.5128C299.843 93.4098 298.593 93.6145 297.696 92.9699C297.322 92.7008 296.946 92.4325 296.569 92.165C295.668 91.5261 295.455 90.2777 296.094 89.3767ZM164.491 45.3157C164.463 46.4199 163.546 47.293 162.442 47.2659C161.982 47.2546 161.522 47.2447 161.063 47.2364C159.958 47.2165 159.079 46.305 159.099 45.2006C159.119 44.0962 160.03 43.2171 161.135 43.2371C161.603 43.2456 162.071 43.2556 162.54 43.2671C163.645 43.2943 164.518 44.2114 164.491 45.3157ZM303.967 95.1142C304.646 94.2425 305.902 94.0857 306.774 94.7641C307.144 95.0522 307.513 95.3412 307.88 95.6309C308.748 96.3149 308.896 97.5725 308.212 98.4398C307.528 99.3071 306.271 99.4557 305.403 98.7717C305.043 98.4874 304.681 98.2038 304.317 97.9209C303.446 97.2426 303.289 95.986 303.967 95.1142ZM311.569 101.196C312.287 100.356 313.549 100.258 314.388 100.976C314.744 101.28 315.097 101.584 315.449 101.89C316.284 102.614 316.374 103.877 315.65 104.711C314.926 105.546 313.663 105.635 312.828 104.912C312.483 104.612 312.136 104.313 311.788 104.015C310.949 103.297 310.85 102.035 311.569 101.196ZM154.756 45.2076C154.781 46.3119 153.905 47.2266 152.801 47.2507C152.342 47.2607 151.885 47.2723 151.428 47.2854C150.324 47.317 149.403 46.4475 149.372 45.3434C149.34 44.2393 150.209 43.3186 151.313 43.287C151.779 43.2737 152.246 43.2619 152.713 43.2517C153.818 43.2276 154.732 44.1033 154.756 45.2076ZM318.868 107.621C319.626 106.818 320.892 106.781 321.695 107.539C322.035 107.86 322.373 108.182 322.71 108.504C323.508 109.268 323.535 110.534 322.772 111.332C322.008 112.13 320.742 112.157 319.944 111.393C319.614 111.078 319.283 110.763 318.95 110.448C318.146 109.69 318.11 108.424 318.868 107.621ZM145.038 45.5572C145.116 46.659 144.286 47.6153 143.184 47.6932C142.727 47.7255 142.272 47.7594 141.816 47.7949C140.715 47.8807 139.753 47.0575 139.667 45.9563C139.581 44.8551 140.404 43.8928 141.506 43.807C141.97 43.7708 142.436 43.7362 142.902 43.7032C144.004 43.6253 144.96 44.4554 145.038 45.5572ZM325.847 114.408C326.645 113.644 327.911 113.673 328.674 114.472C329 114.812 329.324 115.154 329.645 115.496C330.402 116.3 330.364 117.566 329.559 118.323C328.755 119.08 327.489 119.041 326.732 118.237C326.418 117.902 326.101 117.568 325.782 117.235C325.019 116.437 325.048 115.171 325.847 114.408ZM135.339 46.3889C135.474 47.4853 134.694 48.4832 133.598 48.6179C133.141 48.6742 132.684 48.732 132.229 48.7916C131.133 48.9347 130.129 48.1628 129.986 47.0676C129.843 45.9723 130.615 44.9684 131.71 44.8253C132.176 44.7644 132.643 44.7053 133.11 44.6478C134.207 44.5131 135.205 45.2926 135.339 46.3889ZM332.462 121.555C333.301 120.837 334.564 120.935 335.282 121.775C335.586 122.131 335.889 122.488 336.189 122.845C336.9 123.69 336.791 124.952 335.946 125.663C335.101 126.374 333.839 126.265 333.128 125.42C332.835 125.071 332.539 124.722 332.242 124.375C331.524 123.535 331.622 122.273 332.462 121.555ZM125.693 47.7306C125.888 48.8178 125.165 49.8572 124.078 50.0521C123.627 50.1329 123.178 50.2154 122.73 50.2995C121.644 50.5033 120.599 49.7885 120.395 48.7029C120.191 47.6173 120.906 46.572 121.992 46.3682C122.451 46.282 122.911 46.1976 123.372 46.1149C124.459 45.92 125.499 46.6433 125.693 47.7306ZM338.653 129.049C339.533 128.381 340.788 128.554 341.455 129.435C341.739 129.81 342.022 130.187 342.302 130.563C342.961 131.45 342.777 132.703 341.891 133.362C341.005 134.021 339.752 133.837 339.093 132.951C338.819 132.583 338.544 132.217 338.267 131.85C337.599 130.97 337.772 129.716 338.653 129.049ZM116.156 49.6087C116.415 50.6825 115.754 51.7628 114.681 52.0216C114.234 52.1293 113.788 52.2388 113.344 52.3499C112.273 52.6183 111.187 51.9672 110.919 50.8957C110.65 49.8242 111.301 48.7381 112.373 48.4698C112.828 48.3557 113.285 48.2435 113.743 48.133C114.817 47.8742 115.897 48.5349 116.156 49.6087ZM344.392 136.921C345.314 136.312 346.554 136.565 347.164 137.486C347.423 137.879 347.681 138.273 347.936 138.667C348.536 139.594 348.272 140.832 347.344 141.433C346.417 142.033 345.179 141.768 344.579 140.841C344.33 140.458 344.08 140.075 343.827 139.693C343.218 138.771 343.471 137.531 344.392 136.921ZM106.729 52.0661C107.056 53.1212 106.466 54.2416 105.411 54.5687C104.973 54.7045 104.537 54.8421 104.102 54.9814C103.05 55.3187 101.924 54.7394 101.587 53.6876C101.25 52.6358 101.829 51.5097 102.881 51.1724C103.328 51.0291 103.776 50.8877 104.226 50.7482C105.281 50.4211 106.401 51.0111 106.729 52.0661ZM349.594 145.14C350.555 144.597 351.775 144.936 352.319 145.897C352.55 146.306 352.778 146.714 353.003 147.123C353.537 148.091 353.185 149.307 352.218 149.841C351.251 150.374 350.034 150.022 349.501 149.055C349.282 148.658 349.06 148.262 348.837 147.866C348.293 146.904 348.632 145.684 349.594 145.14ZM97.4979 55.1324C97.8978 56.162 97.3874 57.3209 96.3578 57.7208C95.9335 57.8856 95.5111 58.0522 95.0904 58.2207C94.065 58.6314 92.9009 58.1331 92.4902 57.1077C92.0795 56.0823 92.5778 54.9182 93.6032 54.5075C94.0369 54.3338 94.4723 54.162 94.9094 53.9922C95.9391 53.5923 97.0979 54.1027 97.4979 55.1324ZM88.5021 58.8563C88.9798 59.8522 88.5597 61.0468 87.5637 61.5245C87.1514 61.7222 86.7412 61.9219 86.333 62.1235C85.3426 62.6127 84.1433 62.2064 83.6541 61.2161C83.1649 60.2257 83.5712 59.0263 84.5616 58.5372C84.9837 58.3287 85.4078 58.1222 85.8339 57.9178C86.8299 57.4402 88.0245 57.8603 88.5021 58.8563ZM354.197 153.72C355.197 153.251 356.388 153.683 356.856 154.683C357.056 155.111 357.254 155.54 357.448 155.968C357.905 156.974 357.46 158.16 356.454 158.616C355.448 159.073 354.263 158.628 353.806 157.622C353.618 157.207 353.427 156.793 353.233 156.379C352.765 155.378 353.196 154.188 354.197 153.72ZM79.838 63.2723C80.398 64.2244 80.0801 65.4502 79.128 66.0102C78.7352 66.2413 78.3447 66.4743 77.9565 66.7094C77.0117 67.2815 75.7819 66.9793 75.2098 66.0344C74.6377 65.0896 74.9399 63.8598 75.8847 63.2877C76.2876 63.0438 76.6927 62.802 77.1001 62.5624C78.0522 62.0024 79.278 62.3203 79.838 63.2723ZM358.105 162.624C359.141 162.242 360.291 162.773 360.673 163.809C360.837 164.253 360.997 164.696 361.154 165.14C361.523 166.181 360.978 167.324 359.937 167.693C358.896 168.062 357.753 167.517 357.384 166.476C357.232 166.048 357.078 165.62 356.92 165.193C356.538 164.156 357.068 163.007 358.105 162.624ZM71.5794 68.4323C72.2258 69.3279 72.0237 70.5781 71.1281 71.2245C70.7597 71.4903 70.394 71.7583 70.0308 72.0282C69.1443 72.6872 67.8915 72.5028 67.2325 71.6163C66.5735 70.7299 66.7579 69.477 67.6444 68.8181C68.0227 68.5368 68.4036 68.2578 68.7872 67.981C69.6828 67.3346 70.9329 67.5366 71.5794 68.4323ZM361.228 171.848C362.295 171.564 363.391 172.2 363.674 173.267C363.796 173.724 363.914 174.182 364.029 174.639C364.297 175.71 363.647 176.797 362.575 177.065C361.504 177.334 360.417 176.683 360.149 175.612C360.039 175.173 359.925 174.734 359.809 174.295C359.525 173.227 360.16 172.132 361.228 171.848ZM63.866 74.3528C64.601 75.1773 64.5284 76.4416 63.7039 77.1766C63.364 77.4796 63.027 77.7847 62.6929 78.092C61.8799 78.8397 60.6147 78.7869 59.867 77.9739C59.1192 77.1609 59.1721 75.8957 59.9851 75.1479C60.3345 74.8265 60.6869 74.5075 61.0422 74.1907C61.8667 73.4557 63.131 73.5283 63.866 74.3528ZM363.447 181.315C364.538 181.142 365.563 181.887 365.735 182.978C365.81 183.448 365.88 183.918 365.947 184.388C366.103 185.482 365.342 186.494 364.249 186.65C363.155 186.806 362.143 186.045 361.987 184.952C361.923 184.502 361.855 184.053 361.784 183.603C361.612 182.512 362.356 181.488 363.447 181.315ZM56.8147 81.0609C57.6377 81.7976 57.7077 83.062 56.971 83.8851C56.6698 84.2215 56.3718 84.5601 56.077 84.9007C55.3542 85.736 54.0912 85.8272 53.2559 85.1044C52.4206 84.3816 52.3295 83.1186 53.0523 82.2833C53.3618 81.9256 53.6746 81.5703 53.9906 81.2172C54.7273 80.3942 55.9917 80.3242 56.8147 81.0609ZM364.656 190.972C365.759 190.923 366.693 191.778 366.742 192.882C366.763 193.355 366.78 193.828 366.793 194.301C366.823 195.405 365.953 196.325 364.849 196.355C363.745 196.386 362.825 195.515 362.795 194.411C362.782 193.961 362.766 193.51 362.746 193.059C362.697 191.955 363.552 191.021 364.656 190.972ZM50.5838 88.533C51.4898 89.1648 51.712 90.4115 51.0802 91.3175C50.8218 91.6879 50.5669 92.0605 50.3154 92.4352C49.6999 93.3523 48.4574 93.5968 47.5402 92.9812C46.6231 92.3657 46.3786 91.1232 46.9941 90.206C47.2589 89.8115 47.5273 89.4193 47.7992 89.0294C48.4311 88.1234 49.6778 87.9011 50.5838 88.533ZM364.745 200.701C365.846 200.786 366.67 201.747 366.586 202.849C366.549 203.323 366.508 203.796 366.463 204.269C366.359 205.369 365.383 206.175 364.283 206.071C363.184 205.966 362.377 204.99 362.481 203.891C362.524 203.441 362.563 202.992 362.597 202.541C362.682 201.44 363.644 200.616 364.745 200.701ZM45.3193 96.7123C46.2981 97.2241 46.6767 98.4325 46.1649 99.4114C45.9561 99.8106 45.751 100.212 45.5494 100.615C45.0558 101.604 43.8546 102.004 42.8664 101.511C41.8783 101.017 41.4775 99.8158 41.9711 98.8277C42.1837 98.4022 42.4001 97.979 42.6202 97.558C43.132 96.5791 44.3404 96.2005 45.3193 96.7123ZM363.639 210.365C364.721 210.589 365.416 211.647 365.192 212.729C365.096 213.194 364.995 213.659 364.89 214.122C364.646 215.2 363.575 215.876 362.498 215.632C361.421 215.388 360.745 214.317 360.989 213.24C361.088 212.8 361.184 212.359 361.275 211.918C361.499 210.836 362.557 210.141 363.639 210.365ZM41.143 105.501C42.1798 105.882 42.7114 107.031 42.3303 108.068C42.2522 108.28 42.175 108.493 42.0987 108.707C42.0225 108.921 41.9472 109.134 41.8731 109.348C41.5113 110.392 40.372 110.945 39.3284 110.583C38.2847 110.221 37.7319 109.082 38.0937 108.038C38.1719 107.813 38.2512 107.587 38.3316 107.362C38.412 107.137 38.4935 106.912 38.5759 106.688C38.9569 105.651 40.1063 105.12 41.143 105.501ZM361.305 219.811C362.348 220.173 362.901 221.312 362.539 222.356C362.461 222.581 362.382 222.807 362.302 223.032C362.221 223.257 362.14 223.482 362.057 223.706C361.676 224.743 360.527 225.274 359.49 224.893C358.453 224.512 357.922 223.363 358.303 222.326C358.381 222.114 358.458 221.901 358.534 221.687C358.611 221.473 358.686 221.26 358.76 221.046C359.122 220.002 360.261 219.449 361.305 219.811ZM38.1351 114.762C39.2124 115.006 39.8881 116.077 39.6443 117.154C39.5448 117.594 39.4494 118.035 39.3581 118.476C39.1342 119.558 38.0759 120.253 36.9942 120.029C35.9126 119.805 35.2172 118.747 35.4411 117.665C35.5374 117.2 35.638 116.735 35.743 116.272C35.9868 115.194 37.0578 114.519 38.1351 114.762ZM357.767 228.883C358.755 229.377 359.156 230.578 358.662 231.566C358.449 231.992 358.233 232.415 358.013 232.836C357.501 233.815 356.293 234.194 355.314 233.682C354.335 233.17 353.956 231.962 354.468 230.983C354.677 230.583 354.882 230.182 355.084 229.779C355.577 228.791 356.779 228.39 357.767 228.883ZM36.3499 124.323C37.4495 124.428 38.2562 125.404 38.1517 126.503C38.109 126.953 38.0703 127.402 38.0356 127.853C37.9508 128.954 36.9893 129.778 35.8879 129.693C34.7866 129.608 33.9626 128.647 34.0475 127.545C34.084 127.071 34.1247 126.598 34.1697 126.125C34.2742 125.025 35.2503 124.219 36.3499 124.323ZM353.093 237.413C354.01 238.028 354.255 239.271 353.639 240.188C353.374 240.583 353.106 240.975 352.834 241.365C352.202 242.271 350.955 242.493 350.049 241.861C349.143 241.229 348.921 239.983 349.553 239.077C349.811 238.706 350.066 238.334 350.318 237.959C350.933 237.042 352.176 236.797 353.093 237.413ZM35.7844 134.039C36.8885 134.008 37.8082 134.879 37.8386 135.983C37.8509 136.434 37.8671 136.884 37.8871 137.335C37.936 138.439 37.081 139.373 35.9775 139.422C34.874 139.471 33.9399 138.616 33.891 137.512C33.87 137.039 33.8531 136.566 33.8401 136.093C33.8097 134.989 34.6802 134.069 35.7844 134.039ZM347.377 245.29C348.212 246.012 348.304 247.275 347.581 248.111C347.271 248.468 346.959 248.824 346.643 249.177C345.906 250 344.641 250.07 343.818 249.333C342.995 248.596 342.925 247.332 343.662 246.509C343.963 246.173 344.261 245.834 344.556 245.493C345.279 244.658 346.542 244.567 347.377 245.29ZM36.3844 143.744C37.478 143.588 38.4906 144.349 38.6462 145.442C38.7101 145.892 38.7776 146.341 38.8488 146.791C39.0213 147.882 38.2768 148.906 37.1858 149.079C36.0948 149.252 35.0704 148.507 34.8979 147.416C34.8235 146.946 34.7529 146.476 34.686 146.006C34.5305 144.912 35.2909 143.9 36.3844 143.744ZM340.766 252.42C341.514 253.233 341.461 254.498 340.648 255.246C340.299 255.568 339.946 255.887 339.591 256.203C338.766 256.938 337.502 256.866 336.767 256.041C336.032 255.217 336.105 253.953 336.929 253.217C337.269 252.914 337.606 252.609 337.94 252.302C338.753 251.554 340.018 251.607 340.766 252.42ZM38.0579 153.329C39.1294 153.06 40.2157 153.711 40.4843 154.782C40.5944 155.221 40.7077 155.66 40.8244 156.099C41.1082 157.167 40.4728 158.262 39.4052 158.546C38.3377 158.83 37.2424 158.194 36.9586 157.127C36.8371 156.67 36.7191 156.212 36.6044 155.755C36.3358 154.684 36.9865 153.598 38.0579 153.329ZM333.401 258.778C334.06 259.664 333.875 260.917 332.989 261.576C332.61 261.857 332.229 262.136 331.846 262.413C330.95 263.059 329.7 262.857 329.054 261.962C328.407 261.066 328.609 259.816 329.505 259.17C329.873 258.904 330.239 258.636 330.602 258.366C331.489 257.707 332.742 257.891 333.401 258.778ZM40.6961 162.701C41.7373 162.332 42.8803 162.877 43.2492 163.918C43.4007 164.346 43.5553 164.774 43.713 165.201C44.0951 166.238 43.5647 167.388 42.5284 167.77C41.492 168.152 40.3421 167.621 39.96 166.585C39.7964 166.142 39.636 165.698 39.4788 165.254C39.1099 164.213 39.6549 163.07 40.6961 162.701ZM325.423 264.36C325.995 265.304 325.693 266.534 324.748 267.106C324.346 267.35 323.94 267.592 323.533 267.832C322.581 268.392 321.355 268.074 320.795 267.122C320.235 266.17 320.553 264.944 321.505 264.384C321.898 264.153 322.288 263.92 322.677 263.685C323.621 263.113 324.851 263.415 325.423 264.36ZM44.1792 171.778C45.185 171.321 46.3705 171.766 46.8271 172.772C47.0153 173.187 47.2063 173.601 47.4001 174.015C47.8683 175.016 47.4369 176.206 46.4364 176.675C45.436 177.143 44.2455 176.711 43.7772 175.711C43.5769 175.283 43.3794 174.854 43.1848 174.426C42.7282 173.42 43.1734 172.234 44.1792 171.778ZM316.979 269.178C317.468 270.168 317.062 271.368 316.072 271.857C315.649 272.065 315.225 272.272 314.799 272.476C313.803 272.954 312.609 272.534 312.131 271.538C311.653 270.542 312.073 269.347 313.069 268.87C313.482 268.672 313.892 268.472 314.3 268.271C315.29 267.781 316.49 268.188 316.979 269.178ZM308.143 273.286C308.554 274.312 308.055 275.476 307.03 275.887C306.596 276.06 306.161 276.232 305.724 276.402C304.694 276.802 303.535 276.291 303.135 275.262C302.735 274.232 303.246 273.073 304.275 272.673C304.7 272.508 305.122 272.342 305.543 272.173C306.568 271.763 307.732 272.261 308.143 273.286ZM48.4153 180.553C49.3825 180.02 50.599 180.372 51.1324 181.339C51.3513 181.736 51.5727 182.132 51.7966 182.529C52.3401 183.49 52.0011 184.71 51.0395 185.254C50.0779 185.797 48.8578 185.458 48.3143 184.497C48.0835 184.088 47.8554 183.68 47.6297 183.271C47.0963 182.303 47.448 181.087 48.4153 180.553ZM299.046 276.706C299.384 277.758 298.804 278.884 297.753 279.222C297.306 279.365 296.857 279.506 296.407 279.646C295.352 279.973 294.232 279.383 293.905 278.328C293.577 277.273 294.167 276.152 295.223 275.825C295.66 275.69 296.097 275.552 296.531 275.413C297.583 275.075 298.709 275.655 299.046 276.706ZM53.2888 188.961C54.2159 188.361 55.4542 188.626 56.0546 189.553C56.3027 189.936 56.5532 190.319 56.806 190.701C57.4153 191.623 57.1623 192.864 56.2409 193.473C55.3196 194.082 54.0788 193.829 53.4695 192.908C53.2097 192.515 52.9522 192.121 52.6971 191.727C52.0967 190.8 52.3616 189.562 53.2888 188.961ZM289.715 279.498C289.983 280.57 289.332 281.656 288.26 281.924C287.805 282.038 287.348 282.151 286.89 282.261C285.816 282.52 284.736 281.859 284.477 280.785C284.218 279.712 284.879 278.631 285.953 278.372C286.399 278.265 286.845 278.155 287.289 278.044C288.36 277.776 289.446 278.427 289.715 279.498ZM58.7422 197.032C59.6284 196.373 60.8813 196.557 61.5406 197.443C61.8137 197.811 62.0891 198.177 62.3666 198.544C63.0337 199.424 62.8607 200.678 61.9803 201.346C61.0999 202.013 59.8455 201.84 59.1784 200.959C58.8938 200.584 58.6114 200.207 58.3311 199.831C57.6719 198.944 57.8559 197.691 58.7422 197.032ZM280.238 281.691C280.442 282.777 279.727 283.822 278.641 284.026C278.182 284.112 277.722 284.196 277.261 284.279C276.174 284.474 275.135 283.751 274.94 282.663C274.745 281.576 275.468 280.537 276.555 280.342C277.006 280.261 277.455 280.179 277.903 280.095C278.989 279.891 280.034 280.606 280.238 281.691ZM64.687 204.731C65.5323 204.02 66.7939 204.129 67.505 204.974C67.7985 205.323 68.094 205.672 68.3915 206.019C69.1094 206.859 69.0109 208.121 68.1715 208.839C67.332 209.557 66.0695 209.459 65.3516 208.619C65.0471 208.263 64.7445 207.906 64.444 207.549C63.7329 206.704 63.8417 205.442 64.687 204.731ZM270.647 283.326C270.79 284.422 270.018 285.426 268.923 285.569C268.457 285.63 267.991 285.689 267.523 285.746C266.427 285.881 265.429 285.101 265.294 284.005C265.159 282.909 265.939 281.911 267.035 281.776C267.493 281.72 267.949 281.662 268.405 281.603C269.5 281.459 270.504 282.231 270.647 283.326ZM71.0737 212.071C71.8781 211.314 73.1439 211.353 73.9008 212.157C74.2156 212.492 74.5322 212.826 74.8506 213.159C75.6137 213.957 75.585 215.223 74.7863 215.987C73.9878 216.75 72.7218 216.721 71.9587 215.922C71.6331 215.582 71.3095 215.24 70.9877 214.898C70.2307 214.094 70.2692 212.828 71.0737 212.071ZM260.966 284.438C261.052 285.539 260.229 286.501 259.127 286.587C258.663 286.623 258.197 286.658 257.731 286.691C256.629 286.769 255.673 285.939 255.595 284.837C255.517 283.735 256.347 282.779 257.449 282.701C257.906 282.669 258.362 282.635 258.817 282.599C259.918 282.513 260.88 283.337 260.966 284.438ZM77.8616 219.062C78.6254 218.265 79.8914 218.237 80.6893 219.001C81.019 219.316 81.3504 219.631 81.6835 219.946C82.4868 220.704 82.5235 221.97 81.7654 222.773C81.0072 223.576 79.7414 223.613 78.9381 222.855C78.5981 222.534 78.2598 222.212 77.9232 221.89C77.1253 221.126 77.0977 219.86 77.8616 219.062ZM251.262 285.051C251.293 286.155 250.424 287.075 249.32 287.107C248.854 287.12 248.387 287.132 247.92 287.142C246.816 287.166 245.901 286.291 245.877 285.186C245.853 284.082 246.728 283.167 247.833 283.143C248.291 283.133 248.748 283.122 249.205 283.109C250.309 283.077 251.23 283.947 251.262 285.051ZM84.9834 225.683C85.7071 224.848 86.9702 224.759 87.8047 225.482C88.1499 225.782 88.4967 226.081 88.845 226.379C89.6844 227.097 89.7827 228.359 89.0646 229.199C88.3466 230.038 87.084 230.136 86.2447 229.418C85.8895 229.114 85.5359 228.81 85.1838 228.504C84.3493 227.78 84.2596 226.517 84.9834 225.683ZM241.534 285.193C241.514 286.298 240.603 287.177 239.498 287.157C239.03 287.149 238.562 287.139 238.093 287.127C236.989 287.1 236.115 286.183 236.143 285.078C236.17 283.974 237.087 283.101 238.191 283.128C238.652 283.14 239.111 283.149 239.571 283.158C240.675 283.178 241.554 284.089 241.534 285.193ZM92.4208 231.954C93.1048 231.087 94.3623 230.938 95.2296 231.622C95.5902 231.907 95.9523 232.19 96.3158 232.473C97.1875 233.151 97.3443 234.408 96.666 235.28C95.9876 236.152 94.731 236.308 93.8593 235.63C93.489 235.342 93.1201 235.053 92.7527 234.763C91.8854 234.079 91.7368 232.822 92.4208 231.954ZM100.146 237.881C100.79 236.984 102.04 236.78 102.937 237.424C103.311 237.693 103.687 237.962 104.064 238.229C104.965 238.868 105.178 240.116 104.539 241.017C103.9 241.918 102.652 242.131 101.751 241.492C101.367 241.22 100.984 240.946 100.603 240.672C99.7057 240.028 99.5011 238.778 100.146 237.881ZM231.802 284.888C231.733 285.99 230.783 286.828 229.681 286.758C229.212 286.729 228.743 286.698 228.273 286.665C227.171 286.589 226.34 285.634 226.416 284.532C226.492 283.43 227.447 282.599 228.549 282.675C229.011 282.707 229.471 282.737 229.932 282.766C231.034 282.836 231.871 283.785 231.802 284.888ZM108.129 243.465C108.735 242.541 109.974 242.283 110.898 242.888C111.28 243.138 111.663 243.388 112.048 243.636C112.975 244.236 113.241 245.474 112.641 246.402C112.041 247.329 110.803 247.595 109.875 246.995C109.484 246.742 109.094 246.488 108.706 246.234C107.782 245.628 107.524 244.389 108.129 243.465ZM222.088 284.152C221.971 285.251 220.986 286.047 219.888 285.93C219.426 285.881 218.963 285.83 218.501 285.778C217.403 285.655 216.613 284.666 216.736 283.568C216.859 282.47 217.849 281.68 218.947 281.803C219.145 281.826 219.343 281.848 219.542 281.869C219.798 281.897 220.054 281.925 220.31 281.952C221.408 282.069 222.204 283.054 222.088 284.152ZM116.328 248.694C116.894 247.746 118.122 247.437 119.071 248.003C119.463 248.238 119.857 248.472 120.252 248.705C121.204 249.266 121.52 250.492 120.959 251.444C120.398 252.395 119.172 252.712 118.221 252.15C117.819 251.914 117.418 251.676 117.019 251.437C116.071 250.87 115.761 249.642 116.328 248.694ZM212.431 283.007C212.269 284.099 211.252 284.854 210.159 284.692C209.699 284.623 209.238 284.554 208.777 284.483C207.686 284.314 206.937 283.293 207.105 282.201C207.274 281.11 208.295 280.361 209.387 280.529C209.84 280.599 210.293 280.668 210.746 280.735C211.838 280.897 212.593 281.914 212.431 283.007ZM124.737 253.584C125.265 252.614 126.48 252.256 127.45 252.783C127.853 253.003 128.257 253.221 128.663 253.439C129.636 253.961 130.001 255.174 129.479 256.147C128.956 257.12 127.744 257.485 126.771 256.963C126.359 256.742 125.948 256.52 125.538 256.297C124.568 255.769 124.21 254.554 124.737 253.584ZM202.826 281.465C202.62 282.55 201.573 283.263 200.488 283.057C200.153 282.993 199.818 282.929 199.482 282.864C199.359 282.84 199.236 282.816 199.113 282.792C198.029 282.58 197.322 281.529 197.534 280.445C197.746 279.361 198.796 278.654 199.88 278.866C200.332 278.955 200.783 279.042 201.234 279.127C202.319 279.333 203.032 280.38 202.826 281.465ZM133.339 258.136C133.828 257.146 135.028 256.74 136.018 257.229C136.431 257.433 136.844 257.636 137.258 257.838C138.251 258.322 138.664 259.519 138.18 260.512C137.696 261.505 136.499 261.917 135.506 261.434C135.085 261.228 134.665 261.022 134.246 260.815C133.256 260.326 132.85 259.126 133.339 258.136ZM193.287 279.54C193.038 280.616 191.964 281.287 190.888 281.039C190.433 280.933 189.977 280.827 189.521 280.719C188.446 280.465 187.781 279.387 188.036 278.312C188.29 277.238 189.368 276.572 190.442 276.827C190.891 276.933 191.339 277.038 191.787 277.141C192.864 277.389 193.535 278.463 193.287 279.54ZM142.114 262.349C142.565 261.341 143.748 260.889 144.756 261.34C145.177 261.529 145.599 261.716 146.021 261.902C147.032 262.347 147.49 263.528 147.045 264.539C146.599 265.549 145.419 266.008 144.408 265.562C143.979 265.373 143.55 265.183 143.123 264.992C142.115 264.541 141.663 263.358 142.114 262.349ZM183.827 277.243C183.538 278.309 182.439 278.938 181.373 278.648C180.921 278.526 180.469 278.402 180.017 278.276C178.953 277.981 178.33 276.878 178.625 275.814C178.92 274.75 180.023 274.126 181.087 274.422C181.532 274.545 181.977 274.668 182.422 274.788C183.487 275.078 184.117 276.177 183.827 277.243ZM151.045 266.225C151.458 265.2 152.623 264.704 153.648 265.117C153.925 265.228 154.202 265.34 154.48 265.45C154.632 265.511 154.783 265.571 154.935 265.631C155.962 266.038 156.464 267.2 156.057 268.227C155.65 269.254 154.487 269.757 153.461 269.35C153.024 269.176 152.588 269.002 152.153 268.827C151.129 268.415 150.633 267.25 151.045 266.225ZM174.461 274.585C174.131 275.64 173.01 276.227 171.955 275.897C171.508 275.757 171.06 275.616 170.613 275.474C169.56 275.138 168.979 274.013 169.314 272.961C169.65 271.908 170.775 271.327 171.827 271.662C172.268 271.803 172.709 271.942 173.149 272.08C174.203 272.409 174.791 273.531 174.461 274.585ZM160.117 269.762C160.491 268.723 161.637 268.184 162.676 268.558C162.894 268.636 163.111 268.714 163.329 268.792C163.547 268.87 163.765 268.947 163.983 269.024C165.024 269.393 165.569 270.536 165.201 271.577C164.832 272.618 163.689 273.164 162.648 272.795C162.427 272.717 162.205 272.638 161.984 272.559C161.847 272.51 161.71 272.461 161.573 272.412C161.489 272.382 161.405 272.352 161.321 272.321C160.282 271.947 159.743 270.801 160.117 269.762Z" fill="url(#paint1_linear_5954_26377)"/>
<defs>
<linearGradient id="paint0_linear_5954_26377" x1="94.375" y1="321.555" x2="139.993" y2="113.391" gradientUnits="userSpaceOnUse">
<stop stop-color="white"/>
<stop offset="0.623405" stop-color="white" stop-opacity="0"/>
<stop offset="1" stop-color="white" stop-opacity="0"/>
</linearGradient>
<linearGradient id="paint1_linear_5954_26377" x1="21.5122" y1="173.49" x2="230.241" y2="87.205" gradientUnits="userSpaceOnUse">
<stop stop-color="white"/>
<stop offset="0.623405" stop-color="white" stop-opacity="0"/>
</linearGradient>
</defs>
</svg>
