<svg width="45" height="50" viewBox="0 0 45 50" fill="none" xmlns="http://www.w3.org/2000/svg">
<path d="M35.3728 6.25L18.1861 0L0.999474 6.25V32.8125L18.1861 39.0625L35.3728 32.8125V6.25Z" fill="white"/>
<path fill-rule="evenodd" clip-rule="evenodd" d="M19.4635 0.464417L35.2992 6.22241L23.1256 10.923L23.1256 10.923C21.8968 11.3975 21.2824 11.6347 20.79 11.528C20.3594 11.4348 19.9825 11.1763 19.7404 10.8082C19.4635 10.3873 19.4635 9.72864 19.4635 8.41139V0.464417ZM35.375 19.3258V9.40551L22.5238 14.3677L35.375 19.3258ZM19.4634 38.598L35.375 32.8125V22.2791L23.1255 17.5492C21.8967 17.0747 21.2822 16.8375 20.7899 16.9441C20.3592 17.0374 19.9824 17.2959 19.7402 17.664C19.4634 18.0849 19.4634 18.7435 19.4634 20.0608L19.4634 38.598ZM0.997307 22.219V32.8125L16.7532 38.5414V20.0608C16.7532 18.7436 16.7532 18.0849 16.4763 17.664C16.2342 17.2959 15.8573 17.0374 15.4267 16.9442C14.9343 16.8375 14.3199 17.0748 13.0911 17.5492L13.0911 17.5492L0.997307 22.219ZM0.997307 9.20795V19.2545L14.012 14.2333L0.997307 9.20795ZM16.7532 0.521001L0.997307 6.24996V6.25324L13.0911 10.923L13.0911 10.923C14.3199 11.3974 14.9343 11.6347 15.4267 11.528C15.8573 11.4348 16.2342 11.1763 16.4763 10.8082C16.7532 10.3873 16.7532 9.72864 16.7532 8.41139V0.521001Z" fill="black"/>
</svg>
