<svg width="211" height="39" viewBox="0 0 211 39" fill="none" xmlns="http://www.w3.org/2000/svg">
<rect x="39" y="9" width="172" height="20" fill="black"/>
<path d="M52.1597 11C53.7482 11 55.1086 11.0381 56.2408 11.1144C57.373 11.1754 58.3785 11.2974 59.2573 11.4805C60.1361 11.6635 60.8374 11.8923 61.3612 12.1669C61.902 12.4262 62.3414 12.7847 62.6794 13.2423C63.0343 13.6999 63.2793 14.2109 63.4145 14.7753C63.5497 15.3244 63.6173 16.0032 63.6173 16.8117H57.3308C57.3308 16.5676 57.2801 16.3769 57.1787 16.2396C57.0942 16.1024 56.8914 15.9727 56.5703 15.8507C56.2493 15.7134 55.7423 15.6219 55.0494 15.5761C54.3566 15.5151 53.444 15.4846 52.3118 15.4846C50.8077 15.4846 49.7093 15.5151 49.0164 15.5761C48.3236 15.6371 47.8842 15.7134 47.6983 15.8049C47.5124 15.8964 47.4195 16.0566 47.4195 16.2854C47.4364 16.4837 47.6645 16.621 48.1039 16.6973C48.5601 16.7583 49.9121 16.8727 52.1597 17.0405C52.1935 17.0405 52.2188 17.0481 52.2357 17.0633C56.6971 17.3837 59.5277 17.6735 60.7275 17.9328C62.2991 18.2684 63.3131 18.8404 63.7694 19.6488C64.0735 20.198 64.2256 20.9912 64.2256 22.0284C64.2256 22.7606 64.1665 23.3631 64.0482 23.836C63.9468 24.3089 63.7271 24.7436 63.3891 25.1402C63.0681 25.5368 62.6456 25.8495 62.1217 26.0783C61.5978 26.2918 60.8712 26.4749 59.9417 26.6274C59.0123 26.78 57.9476 26.8867 56.7478 26.9477C55.5648 26.9935 54.0862 27.0164 52.3118 27.0164C51.095 27.0164 50.0388 27.0011 49.1432 26.9706C48.2644 26.9401 47.4364 26.8867 46.659 26.8105C45.8985 26.7342 45.2648 26.635 44.7578 26.513C44.2509 26.391 43.7946 26.2232 43.389 26.0096C42.9834 25.7961 42.6624 25.5673 42.4258 25.3232C42.2061 25.0639 42.0202 24.736 41.8681 24.3394C41.716 23.9428 41.6146 23.5233 41.5639 23.0809C41.5132 22.6386 41.4879 22.1123 41.4879 21.5022H47.5969C47.5969 21.7615 47.6391 21.9598 47.7236 22.0971C47.825 22.2344 48.0532 22.3488 48.4081 22.4403C48.7629 22.5318 49.253 22.5928 49.8783 22.6233C50.5204 22.6538 51.4246 22.6691 52.5906 22.6691C52.7258 22.6691 52.9286 22.6691 53.199 22.6691C55.1255 22.6691 56.2915 22.6386 56.6971 22.5776C57.1196 22.5165 57.3308 22.3182 57.3308 21.9827C57.3308 21.7844 57.1872 21.6547 56.8999 21.5937C56.6126 21.5327 55.8183 21.464 54.5171 21.3878C53.5707 21.3268 52.7849 21.2734 52.1597 21.2276C51.1626 21.1513 50.3937 21.0903 49.8529 21.0446C49.3291 20.9988 48.67 20.9378 47.8757 20.8615C47.0984 20.77 46.5069 20.6861 46.1013 20.6098C45.6957 20.5183 45.2141 20.4115 44.6564 20.2895C44.0988 20.1522 43.6763 19.9997 43.389 19.8319C43.1186 19.6641 42.8144 19.4658 42.4765 19.237C42.1554 19.0082 41.9188 18.7489 41.7667 18.4591C41.6315 18.1692 41.5048 17.8413 41.3865 17.4752C41.2851 17.0939 41.2344 16.682 41.2344 16.2396C41.2344 15.7058 41.2766 15.2253 41.3611 14.7982C41.4456 14.3711 41.5639 13.9897 41.716 13.6541C41.8681 13.3186 42.0793 13.0211 42.3497 12.7618C42.6201 12.5025 42.9074 12.2813 43.2116 12.0983C43.5158 11.9 43.9044 11.7398 44.3776 11.6178C44.8677 11.4805 45.3493 11.3737 45.8225 11.2974C46.3126 11.2212 46.9125 11.1602 47.6222 11.1144C48.332 11.0686 49.0249 11.0381 49.7008 11.0229C50.3937 11.0076 51.2133 11 52.1597 11Z" fill="white"/>
<path d="M64.3867 11H80.3787C80.682 11 80.9701 11.0076 81.2431 11.0228C81.5161 11.0379 81.8953 11.091 82.3806 11.182C82.881 11.2578 83.3284 11.3791 83.7228 11.546C84.1322 11.6976 84.5645 11.9251 85.0194 12.2284C85.4744 12.5318 85.8536 12.8957 86.1569 13.3204C86.4754 13.7299 86.7332 14.2682 86.9303 14.9355C87.1427 15.5877 87.2488 16.3232 87.2488 17.1422C87.2488 17.946 87.1502 18.6815 86.9531 19.3488C86.7711 20.0161 86.5284 20.5773 86.2251 21.0322C85.9218 21.472 85.5578 21.8664 85.1332 22.2152C84.7085 22.5488 84.2915 22.8142 83.882 23.0114C83.4725 23.1934 83.0403 23.345 82.5853 23.4664C82.1455 23.5725 81.7664 23.6483 81.4479 23.6938C81.1294 23.7242 80.8337 23.7393 80.5607 23.7393H69.6872V26.9697H64.3867V11ZM80.2194 19.0303C81.6147 19.0303 82.3123 18.454 82.3123 17.3014C82.3123 17.0436 82.2744 16.8237 82.1986 16.6417C82.1379 16.4597 82.0393 16.3156 81.9028 16.2095C81.7664 16.0882 81.6299 15.9896 81.4934 15.9137C81.3569 15.8379 81.1901 15.7924 80.9929 15.7773C80.8109 15.7469 80.6592 15.7242 80.5379 15.709C80.4166 15.6938 80.2801 15.6863 80.1284 15.6863H69.6872V19.0303H80.2194Z" fill="white"/>
<path d="M87.4102 11H110.205V15.4458H94.2632V17.0075H106.801V20.9745H94.2632V22.559H110.205V27.0047H87.4102V11Z" fill="white"/>
<path d="M133.071 11L125.814 18.9848L133.002 26.9697H125.859L121.719 22.4427L117.51 26.9697H110.367L117.624 18.9848L110.435 11H117.579L121.742 15.527L125.927 11H133.071Z" fill="white"/>
<path d="M133.23 26.9697V11H138.531V26.9697H133.23Z" fill="white"/>
<path d="M148.019 17.7983H161.945V27.206H157.392V25.5351C156.662 26.1302 155.786 26.5728 154.763 26.8627C153.757 27.1374 152.288 27.2747 150.357 27.2747C148.62 27.2747 147.086 27.145 145.755 26.8856C144.425 26.6262 143.313 26.2752 142.42 25.8327C141.544 25.3749 140.821 24.8102 140.253 24.1388C139.702 23.4521 139.304 22.7196 139.06 21.9414C138.817 21.1631 138.695 20.2857 138.695 19.309C138.695 18.1951 138.898 17.1803 139.304 16.2647C139.71 15.3338 140.262 14.5479 140.959 13.907C141.674 13.2661 142.509 12.7244 143.467 12.2818C144.441 11.8393 145.488 11.5188 146.607 11.3205C147.744 11.1068 148.945 11 150.211 11C151.947 11 153.44 11.0992 154.69 11.2976C155.956 11.4959 157.003 11.8011 157.831 12.2132C158.675 12.6252 159.356 13.0982 159.876 13.6323C160.411 14.1512 160.882 14.7997 161.288 15.578L155.98 17.2489C155.153 16.135 153.213 15.578 150.162 15.578C148.993 15.578 148.019 15.6695 147.24 15.8527C146.461 16.0358 145.869 16.3105 145.463 16.6767C145.058 17.0277 144.773 17.4168 144.611 17.8441C144.449 18.2714 144.368 18.7826 144.368 19.3777C144.368 19.9271 144.441 20.4001 144.587 20.7969C144.733 21.1784 145.001 21.537 145.39 21.8727C145.796 22.2084 146.396 22.4678 147.192 22.651C147.987 22.8188 148.977 22.9027 150.162 22.9027C150.99 22.9027 151.696 22.8722 152.28 22.8112C152.864 22.7349 153.335 22.6204 153.692 22.4678C154.049 22.3152 154.301 22.1855 154.447 22.0787C154.609 21.9719 154.812 21.804 155.055 21.5751H148.019V17.7983Z" fill="white"/>
<path d="M173.588 11C175.149 11 176.529 11.0833 177.728 11.25C178.927 11.4016 180.036 11.6668 181.055 12.0456C182.073 12.4244 182.903 12.9245 183.544 13.5458C184.201 14.1519 184.71 14.9247 185.071 15.8642C185.433 16.7886 185.613 17.8796 185.613 19.1374C185.613 20.3799 185.449 21.4558 185.121 22.365C184.808 23.2742 184.348 24.047 183.741 24.6835C183.149 25.3048 182.361 25.8124 181.375 26.2064C180.406 26.5852 179.305 26.858 178.073 27.0247C176.841 27.1914 175.404 27.2747 173.761 27.2747C169.687 27.2747 166.722 26.5928 164.865 25.229C163.025 23.8501 162.105 21.721 162.105 18.8419C162.105 16.1749 163.05 14.2049 164.939 12.9321C166.828 11.644 169.711 11 173.588 11ZM173.81 23.0924C175.551 23.0924 176.899 22.7666 177.851 22.115C178.804 21.4634 179.281 20.4709 179.281 19.1374C179.281 17.8493 178.78 16.8719 177.777 16.2052C176.775 15.5233 175.428 15.1823 173.736 15.1823C172.849 15.1823 172.069 15.2733 171.395 15.4551C170.722 15.6218 170.163 15.8794 169.72 16.2279C169.293 16.5764 168.972 16.9932 168.759 17.4781C168.545 17.963 168.438 18.5161 168.438 19.1374C168.438 20.3345 168.89 21.2967 169.794 22.0241C170.697 22.7363 172.036 23.0924 173.81 23.0924Z" fill="white"/>
<path d="M208.765 27.0164H200.596L191.759 17.3655V27.0164H185.773V11H194.122L202.805 20.4912V11H208.765V27.0164Z" fill="white"/>
<path d="M33.9453 6.20785L16.9729 0L0.000553131 6.20785V32.0068L16.9729 38.2147L33.9453 32.0068V6.20785Z" fill="white"/>
<path fill-rule="evenodd" clip-rule="evenodd" d="M18.3106 0.480469L33.9212 6.19025L21.9311 10.8452C20.7165 11.3168 20.1092 11.5525 19.6224 11.4478C19.1967 11.3561 18.8239 11.101 18.5844 10.7373C18.3106 10.3214 18.3106 9.66995 18.3106 8.36705V0.480469ZM33.9453 19.1553V9.36566L21.3323 14.2625L33.9453 19.1553ZM18.3106 37.7166L33.9453 31.998V22.0906L21.9311 17.4263C20.7165 16.9547 20.1092 16.719 19.6224 16.8237C19.1967 16.9154 18.8239 17.1705 18.5844 17.5342C18.3106 17.9501 18.3106 18.6015 18.3106 19.9044L18.3106 37.7166ZM0.000553131 22.0904V31.998L15.6347 37.7164V19.9044C15.6347 18.6015 15.6347 17.9501 15.3609 17.5342C15.1214 17.1705 14.7486 16.9154 14.3229 16.8237C13.8361 16.7189 13.2288 16.9547 12.0142 17.4263L0.000553131 22.0904ZM0.000553131 9.11578V19.1496L12.9281 14.1347L0.000553131 9.11578ZM15.6348 0.480672L0.024395 6.19035L12.0142 10.8452C13.2288 11.3168 13.8361 11.5525 14.3229 11.4478C14.7486 11.3561 15.1214 11.101 15.3609 10.7373C15.6348 10.3214 15.6348 9.66994 15.6348 8.36704V0.480672Z" fill="black"/>
</svg>
