<svg width="426" height="42" viewBox="0 0 426 42" fill="none" xmlns="http://www.w3.org/2000/svg">
<path d="M27.7839 0C31.8231 0 35.2822 0.0969649 38.1612 0.290895C41.0402 0.446039 43.5969 0.756328 45.8313 1.22176C48.0657 1.68719 49.849 2.26898 51.181 2.96713C52.5561 3.62649 53.6733 4.53796 54.5327 5.70154C55.4351 6.86512 56.0581 8.16446 56.4019 9.59954C56.7456 10.9958 56.9175 12.7218 56.9175 14.7775H40.9327C40.9327 14.1569 40.8038 13.6721 40.546 13.323C40.3312 12.9739 39.8155 12.6442 38.9991 12.334C38.1827 11.9849 36.8936 11.7522 35.1318 11.6358C33.37 11.4807 31.0497 11.4031 28.1707 11.4031C24.3463 11.4031 21.5533 11.4807 19.7915 11.6358C18.0298 11.7909 16.9126 11.9849 16.4399 12.2176C15.9672 12.4503 15.7309 12.8576 15.7309 13.4394C15.7739 13.9436 16.354 14.2926 17.4712 14.4866C18.6314 14.6417 22.0689 14.9326 27.7839 15.3593C27.8699 15.3593 27.9343 15.3787 27.9773 15.4174C39.3214 16.2319 46.5188 16.9689 49.5697 17.6282C53.5659 18.4815 56.1441 19.936 57.3043 21.9917C58.0777 23.388 58.4644 25.4048 58.4644 28.0423C58.4644 29.904 58.314 31.4361 58.0133 32.6384C57.7554 33.8408 57.1968 34.9462 56.3374 35.9546C55.521 36.9631 54.4468 37.7582 53.1147 38.34C51.7826 38.883 49.9349 39.3484 47.5716 39.7363C45.2082 40.1241 42.5011 40.3956 39.4503 40.5508C36.4424 40.6671 32.6825 40.7253 28.1707 40.7253C25.0768 40.7253 22.3912 40.6865 20.1138 40.609C17.8794 40.5314 15.7739 40.3956 13.7972 40.2017C11.8636 40.0078 10.2522 39.7557 8.96313 39.4454C7.67403 39.1351 6.51384 38.7084 5.48257 38.1654C4.45129 37.6224 3.63486 37.0406 3.03328 36.4201C2.47468 35.7607 2.00201 34.9268 1.61528 33.9184C1.22855 32.9099 0.970729 31.8433 0.841819 30.7185C0.712909 29.5937 0.648455 28.2556 0.648455 26.7042H16.1821C16.1821 27.3635 16.2895 27.8678 16.5043 28.2168C16.7622 28.5659 17.3423 28.8568 18.2446 29.0895C19.147 29.3222 20.3931 29.4774 21.983 29.5549C23.6159 29.6325 25.9148 29.6713 28.8797 29.6713C29.2234 29.6713 29.7391 29.6713 30.4266 29.6713C35.3252 29.6713 38.2901 29.5937 39.3214 29.4386C40.3956 29.2834 40.9327 28.7792 40.9327 27.9259C40.9327 27.4217 40.5675 27.092 39.837 26.9369C39.1065 26.7817 37.0869 26.6072 33.7782 26.4133C31.3719 26.2581 29.3738 26.1224 27.7839 26.006C25.2487 25.8121 23.2936 25.6569 21.9185 25.5406C20.5865 25.4242 18.9107 25.2691 16.8911 25.0752C14.9145 24.8424 13.4105 24.6291 12.3792 24.4352C11.348 24.2025 10.1233 23.931 8.70531 23.6207C7.2873 23.2716 6.21306 22.8837 5.48257 22.4571C4.79505 22.0305 4.02159 21.5262 3.16219 20.9445C2.34577 20.3627 1.74419 19.7033 1.35746 18.9664C1.0137 18.2294 0.691425 17.3955 0.390635 16.4647C0.132816 15.495 0.00390625 14.4478 0.00390625 13.323C0.00390625 11.9655 0.111331 10.7437 0.32618 9.65772C0.54103 8.57171 0.841819 7.60206 1.22855 6.74877C1.61528 5.89548 2.1524 5.13915 2.83992 4.47979C3.52744 3.82042 4.25793 3.25803 5.03138 2.7926C5.80484 2.28838 6.79315 1.88112 7.99631 1.57083C9.24243 1.22176 10.4671 0.950258 11.6702 0.756328C12.9164 0.562398 14.4418 0.407254 16.2465 0.290895C18.0513 0.174538 19.813 0.0969661 21.5318 0.0581783C23.2936 0.0193928 25.3776 0 27.7839 0Z" fill="white"/>
<path d="M58.8789 0H99.5421C100.313 0 101.046 0.0192849 101.74 0.0578471C102.434 0.0964093 103.398 0.231379 104.632 0.462757C105.905 0.65557 107.043 0.964071 108.045 1.38826C109.086 1.77389 110.185 2.35233 111.342 3.12358C112.499 3.89484 113.463 4.82034 114.234 5.9001C115.044 6.94129 115.7 8.31027 116.201 10.007C116.741 11.6652 117.011 13.5355 117.011 15.6179C117.011 17.6617 116.76 19.532 116.259 21.2288C115.796 22.9255 115.179 24.3524 114.408 25.5092C113.637 26.6276 112.711 27.6302 111.632 28.5171C110.552 29.3655 109.491 30.0404 108.45 30.5417C107.409 31.0044 106.31 31.3901 105.153 31.6986C104.035 31.9685 103.071 32.1613 102.261 32.277C101.451 32.3541 100.699 32.3927 100.005 32.3927H72.3566V40.6066H58.8789V0ZM99.1372 20.419C102.685 20.419 104.459 18.9536 104.459 16.0228C104.459 15.3672 104.362 14.8081 104.17 14.3453C104.015 13.8826 103.765 13.5162 103.418 13.2463C103.071 12.9378 102.724 12.6871 102.376 12.4943C102.029 12.3015 101.605 12.1858 101.104 12.1473C100.641 12.0701 100.256 12.0123 99.947 11.9737C99.6385 11.9352 99.2914 11.9159 98.9058 11.9159H72.3566V20.419H99.1372Z" fill="white"/>
<path d="M117.422 0H175.382V11.3043H134.847V15.2754H166.729V25.3623H134.847V29.3913H175.382V40.6957H117.422V0Z" fill="white"/>
<path d="M233.521 0L215.069 20.3033L233.348 40.6065H215.185L204.657 29.0956L193.956 40.6065H175.793L194.245 20.3033L175.967 0H194.13L204.715 11.511L215.358 0H233.521Z" fill="white"/>
<path d="M233.93 40.6065V0H247.407V40.6065H233.93Z" fill="white"/>
<path d="M271.529 17.2862H306.938V41.2076H295.362V36.9588C293.505 38.472 291.276 39.5973 288.676 40.3345C286.118 41.033 282.383 41.3822 277.472 41.3822C273.056 41.3822 269.156 41.0524 265.772 40.3927C262.388 39.7331 259.561 38.8407 257.291 37.7154C255.063 36.5513 253.227 35.1157 251.782 33.4084C250.379 31.6623 249.368 29.7998 248.749 27.8209C248.13 25.842 247.82 23.6109 247.82 21.1276C247.82 18.2951 248.336 15.7147 249.368 13.3866C250.4 11.0197 251.803 9.02143 253.577 7.39175C255.393 5.76207 257.518 4.3846 259.953 3.25934C262.429 2.13409 265.091 1.31925 267.939 0.814831C270.828 0.271605 273.881 0 277.1 0C281.516 0 285.313 0.252198 288.491 0.75662C291.71 1.26104 294.371 2.03708 296.476 3.08473C298.622 4.13238 300.355 5.33524 301.676 6.6933C303.038 8.01257 304.235 9.66164 305.266 11.6405L291.771 15.8893C289.667 13.0568 284.735 11.6405 276.977 11.6405C274.005 11.6405 271.529 11.8734 269.548 12.339C267.567 12.8046 266.061 13.503 265.029 14.4343C263.998 15.3267 263.275 16.3162 262.863 17.4026C262.45 18.4891 262.244 19.7889 262.244 21.3022C262.244 22.6991 262.429 23.9019 262.801 24.9108C263.172 25.8808 263.853 26.7927 264.844 27.6463C265.875 28.5 267.402 29.1596 269.424 29.6252C271.447 30.052 273.964 30.2654 276.977 30.2654C279.081 30.2654 280.877 30.1878 282.362 30.0326C283.848 29.8386 285.045 29.5476 285.953 29.1596C286.86 28.7716 287.5 28.4418 287.872 28.1701C288.284 27.8985 288.8 27.4717 289.419 26.8897H271.529V17.2862Z" fill="white"/>
<path d="M336.546 0C340.514 0 344.023 0.211927 347.072 0.635768C350.121 1.02108 352.941 1.69537 355.53 2.65864C358.12 3.62191 360.23 4.89344 361.859 6.4732C363.53 8.01444 364.825 9.97951 365.743 12.3684C366.662 14.7188 367.122 17.493 367.122 20.6911C367.122 23.8506 366.704 26.5863 365.869 28.8982C365.075 31.21 363.906 33.1751 362.36 34.7934C360.856 36.3731 358.851 37.664 356.345 38.6658C353.881 39.629 351.082 40.3226 347.949 40.7464C344.816 41.1702 341.161 41.3822 336.984 41.3822C326.625 41.3822 319.085 39.6483 314.365 36.1805C309.687 32.6742 307.348 27.2606 307.348 19.9397C307.348 13.1583 309.749 8.14928 314.553 4.91269C319.357 1.63756 326.688 0 336.546 0ZM337.109 30.7476C341.537 30.7476 344.962 29.9192 347.385 28.2624C349.808 26.6056 351.019 24.0818 351.019 20.6911C351.019 17.416 349.745 14.9307 347.197 13.2354C344.649 11.5015 341.224 10.6345 336.922 10.6345C334.666 10.6345 332.682 10.8657 330.969 11.3281C329.257 11.7519 327.836 12.4069 326.708 13.2932C325.622 14.1794 324.808 15.239 324.265 16.472C323.722 17.7049 323.45 19.1113 323.45 20.6911C323.45 23.735 324.599 26.1817 326.896 28.0312C329.194 29.8422 332.598 30.7476 337.109 30.7476Z" fill="white"/>
<path d="M425.996 40.7253H405.224L382.754 16.1857V40.7253H367.535V0H388.764L410.842 24.1335V0H425.996V40.7253Z" fill="white"/>
</svg>
