<svg width="122" height="33" viewBox="0 0 122 33" fill="none" xmlns="http://www.w3.org/2000/svg">
<path d="M19.4326 15.246C19.4003 11.6453 22.3708 9.89357 22.5066 9.81202C20.8243 7.35085 18.2168 7.01457 17.3004 6.98776C15.1104 6.7565 12.9861 8.30269 11.8705 8.30269C10.7326 8.30269 9.01465 7.01011 7.16309 7.04809C4.78045 7.08496 2.55146 8.46916 1.32897 10.6186C-1.19396 15.0014 0.687658 21.442 3.10481 24.9846C4.31395 26.7207 5.72683 28.6568 7.57616 28.5886C9.3854 28.5149 10.0612 27.4323 12.2446 27.4323C14.4079 27.4323 15.0425 28.5886 16.9286 28.5451C18.8703 28.5149 20.0928 26.8023 21.2596 25.0516C22.6569 23.0641 23.2181 21.1046 23.2403 21.004C23.1958 20.9884 19.4704 19.5606 19.4326 15.246ZM15.8697 4.6573C16.8428 3.43621 17.5086 1.77495 17.3238 0.0891113C15.9154 0.151674 14.154 1.06665 13.1397 2.26093C12.2423 3.31332 11.4407 5.03826 11.6478 6.66042C13.2299 6.77885 14.8543 5.8594 15.8697 4.6573Z" fill="#FAF9FF"/>
<path d="M45.6381 28.3395H43.1096L41.7246 23.9724H36.9103L35.5909 28.3395H33.1292L37.9001 13.4719H40.8461L45.6381 28.3395ZM41.307 22.1402L40.0545 18.258C39.922 17.8614 39.6726 16.9274 39.3074 15.4572H39.2629C39.1159 16.0895 38.881 17.0235 38.5592 18.258L37.3278 22.1402H41.307ZM57.8831 22.8474C57.8831 24.6706 57.3899 26.1118 56.4023 27.1698C55.5183 28.1116 54.4194 28.5819 53.1089 28.5819C51.6938 28.5819 50.6762 28.0758 50.0582 27.0614V32.6865H47.6845V21.1426C47.6845 19.9974 47.6544 18.8233 47.5965 17.6189H49.6841L49.8166 19.3182H49.8612C50.6528 18.0379 51.8541 17.3977 53.4663 17.3977C54.7267 17.3977 55.7788 17.8971 56.6205 18.897C57.4611 19.8991 57.8831 21.2152 57.8831 22.8474ZM55.4648 22.9345C55.4648 21.8911 55.231 21.0308 54.7612 20.3527C54.2479 19.6478 53.5587 19.2947 52.6947 19.2947C52.1091 19.2947 51.5769 19.4914 51.1015 19.879C50.6249 20.27 50.3132 20.7806 50.1673 21.4129C50.1022 21.6494 50.0652 21.8928 50.0571 22.138V23.9266C50.0571 24.7053 50.2954 25.3633 50.7719 25.9018C51.2484 26.438 51.8675 26.7073 52.629 26.7073C53.5231 26.7073 54.2189 26.3598 54.7166 25.6705C55.2154 24.979 55.4648 24.0674 55.4648 22.9345ZM70.1715 22.8474C70.1715 24.6706 69.6783 26.1118 68.6907 27.1698C67.8056 28.1116 66.7078 28.5819 65.3962 28.5819C63.9811 28.5819 62.9635 28.0758 62.3455 27.0614V32.6865H59.9718V21.1426C59.9718 19.9974 59.9417 18.8233 59.8838 17.6189H61.9714L62.1039 19.3182H62.1485C62.939 18.0379 64.1403 17.3977 65.7536 17.3977C67.0128 17.3977 68.065 17.8971 68.9089 18.897C69.7484 19.8991 70.1715 21.2152 70.1715 22.8474ZM67.7521 22.9345C67.7521 21.8911 67.5172 21.0308 67.0473 20.3527C66.5341 19.6478 65.8471 19.2947 64.9831 19.2947C64.3975 19.2947 63.8653 19.4914 63.3877 19.879C62.9111 20.27 62.6005 20.7806 62.4546 21.4129C62.3823 21.7079 62.3433 21.9481 62.3433 22.138V23.9266C62.3433 24.7053 62.5827 25.3633 63.057 25.9018C63.5335 26.4369 64.1526 26.7073 64.9163 26.7073C65.8115 26.7073 66.5074 26.3598 67.0039 25.6705C67.5027 24.979 67.7521 24.0674 67.7521 22.9345ZM83.9106 24.169C83.9106 25.4348 83.4697 26.4637 82.5935 27.2581C81.6293 28.125 80.2832 28.5596 78.5575 28.5596C76.9631 28.5596 75.685 28.2512 74.7208 27.6334L75.2697 25.6482C76.3107 26.2671 77.4541 26.5755 78.6989 26.5755C79.5941 26.5755 80.2899 26.3721 80.7865 25.9688C81.2842 25.5644 81.5358 25.0237 81.5358 24.3489C81.5358 23.7445 81.3276 23.2384 80.919 22.8262C80.5081 22.415 79.829 22.0318 78.8748 21.6799C76.2806 20.7091 74.9824 19.2891 74.9824 17.4212C74.9824 16.2012 75.4411 15.2025 76.3563 14.4215C77.2715 13.6417 78.4851 13.2518 79.9949 13.2518C81.3432 13.2518 82.4666 13.4876 83.3584 13.9579L82.7628 15.8996C81.9233 15.4438 80.9758 15.2159 79.9158 15.2159C79.0786 15.2159 78.4217 15.4225 77.9518 15.8337C77.5566 16.2012 77.3562 16.6492 77.3562 17.181C77.3562 17.7675 77.5844 18.2546 78.0387 18.6367C78.4328 18.9886 79.152 19.3718 80.1919 19.7829C81.4679 20.2991 82.4053 20.9001 83.0055 21.5906C83.61 22.281 83.9106 23.1423 83.9106 24.169ZM91.7789 19.4064H89.1625V24.6114C89.1625 25.9353 89.6234 26.5956 90.5475 26.5956C90.9717 26.5956 91.3235 26.5598 91.6019 26.485L91.6676 28.2937C91.2 28.4691 90.5843 28.5574 89.8216 28.5574C88.8841 28.5574 88.1515 28.2702 87.6227 27.696C87.096 27.1218 86.831 26.1599 86.831 24.8058V19.402H85.2723V17.6145H86.831V15.6516L89.1625 14.9455V17.6145H91.7789V19.4064ZM103.561 22.891C103.561 24.5388 103.091 25.8917 102.153 26.9497C101.173 28.039 99.8677 28.5819 98.241 28.5819C96.6711 28.5819 95.423 28.0602 94.4922 27.0179C93.5614 25.9733 93.0961 24.6572 93.0961 23.0697C93.0961 21.4085 93.577 20.0477 94.5357 18.9897C95.4965 17.9306 96.7903 17.4011 98.4169 17.4011C99.9846 17.4011 101.244 17.9239 102.197 18.9674C103.108 19.9796 103.561 21.2867 103.561 22.891ZM101.1 22.9457C101.1 21.9637 100.889 21.1213 100.464 20.4164C99.9667 19.5651 99.2542 19.1394 98.3312 19.1394C97.3803 19.1394 96.6511 19.5651 96.1545 20.4164C95.7292 21.1213 95.5177 21.9782 95.5177 22.9904C95.5177 23.9735 95.7292 24.8181 96.1545 25.5208C96.6678 26.3721 97.3837 26.7978 98.3111 26.7978C99.2185 26.7978 99.93 26.3632 100.444 25.4996C100.881 24.7779 101.1 23.93 101.1 22.9457ZM111.28 19.7137C111.033 19.669 110.782 19.6469 110.532 19.6478C109.697 19.6478 109.051 19.9628 108.597 20.5974C108.202 21.156 108.004 21.862 108.004 22.7144V28.3395H105.631V20.9951C105.633 19.8697 105.61 18.7444 105.561 17.6201H107.629L107.716 19.6712H107.782C108.033 18.9663 108.427 18.3976 108.968 17.972C109.464 17.6 110.066 17.3986 110.684 17.3977C110.903 17.3977 111.102 17.4134 111.278 17.4413L111.28 19.7137ZM121.896 22.472C121.902 22.8341 121.873 23.1959 121.809 23.5523H114.688C114.715 24.6114 115.06 25.4225 115.721 25.9811C116.321 26.4794 117.097 26.7296 118.05 26.7296C119.105 26.7296 120.067 26.5621 120.932 26.2235L121.304 27.8759C120.293 28.3183 119.099 28.5384 117.722 28.5384C116.065 28.5384 114.765 28.049 113.818 27.0726C112.874 26.0951 112.401 24.7813 112.401 23.1356C112.401 21.5202 112.841 20.174 113.721 19.1003C114.643 17.9541 115.889 17.381 117.457 17.381C118.997 17.381 120.162 17.9541 120.954 19.1003C121.581 20.0086 121.896 21.1347 121.896 22.472ZM119.632 21.8542C119.649 21.147 119.493 20.5382 119.171 20.0231C118.761 19.3595 118.128 19.0288 117.281 19.0288C116.505 19.0288 115.873 19.3517 115.392 19.9997C114.996 20.5147 114.761 21.1336 114.689 21.852L119.632 21.8542Z" fill="#FAF9FF"/>
<path d="M36.2256 8.21555C35.5653 8.21555 34.9942 8.18316 34.5188 8.12841V0.940411C35.1837 0.837345 35.8556 0.786544 36.5284 0.788473C39.2506 0.788473 40.5043 2.13245 40.5043 4.32326C40.5043 6.85035 39.0235 8.21555 36.2256 8.21555ZM36.6242 1.71016C36.2567 1.71016 35.9439 1.7325 35.6845 1.78612V7.2503C35.8247 7.27265 36.0942 7.2827 36.4727 7.2827C38.2564 7.2827 39.2718 6.26382 39.2718 4.35566C39.2718 2.65418 38.3532 1.71016 36.6242 1.71016ZM44.4112 8.2703C42.8769 8.2703 41.8827 7.12071 41.8827 5.55999C41.8827 3.93336 42.8981 2.77372 44.498 2.77372C46.01 2.77372 47.0265 3.86857 47.0265 5.47397C47.0265 7.12071 45.9788 8.2703 44.4112 8.2703ZM44.4557 3.62949C43.6129 3.62949 43.0729 4.42046 43.0729 5.52648C43.0729 6.61127 43.624 7.40224 44.4446 7.40224C45.2651 7.40224 45.8162 6.55653 45.8162 5.50413C45.8162 4.43163 45.2763 3.62949 44.4557 3.62949ZM55.7755 2.88209L54.1332 8.15076H53.0633L52.383 5.86275C52.2138 5.30309 52.073 4.73521 51.961 4.16127H51.9387C51.853 4.73551 51.6905 5.31086 51.5179 5.86275L50.7942 8.15076H49.7131L48.1677 2.88209H49.3668L49.9614 5.38683C50.1017 5.98341 50.2197 6.54647 50.3177 7.07825H50.3399C50.4257 6.63473 50.5659 6.0806 50.7719 5.398L51.5179 2.88321H52.4687L53.1824 5.34437C53.355 5.94095 53.4952 6.52636 53.6044 7.07937H53.6355C53.7112 6.53753 53.8304 5.96218 53.9918 5.34437L54.6298 2.88321L55.7755 2.88209ZM61.8211 8.15076H60.6543V5.12541C60.6543 4.19367 60.298 3.72668 59.5955 3.72668C58.9041 3.72668 58.4286 4.32326 58.4286 5.01704V8.15076H57.2618V4.38806C57.2618 3.92219 57.2507 3.42281 57.2184 2.88097H58.2449L58.2995 3.69429H58.3318C58.6458 3.13122 59.2826 2.77372 59.9963 2.77372C61.0985 2.77372 61.8222 3.61943 61.8222 4.99581L61.8211 8.15076ZM65.0388 8.15076H63.8709V0.464488H65.0388V8.15076ZM69.293 8.2703C67.7599 8.2703 66.7645 7.12071 66.7645 5.55999C66.7645 3.93336 67.7799 2.77372 69.3788 2.77372C70.8919 2.77372 71.9073 3.86857 71.9073 5.47397C71.9084 7.12071 70.8596 8.2703 69.293 8.2703ZM69.3365 3.62949C68.4936 3.62949 67.9536 4.42046 67.9536 5.52648C67.9536 6.61127 68.5059 7.40224 69.3242 7.40224C70.1459 7.40224 70.6959 6.55653 70.6959 5.50413C70.697 4.43163 70.1581 3.62949 69.3365 3.62949ZM76.5078 8.15076L76.4231 7.54412H76.392C76.0357 8.03234 75.5157 8.2703 74.8566 8.2703C73.9158 8.2703 73.2478 7.60892 73.2478 6.71964C73.2478 5.41923 74.3712 4.74668 76.3163 4.74668V4.64948C76.3163 3.95571 75.9499 3.60826 75.2262 3.60826C74.7085 3.60826 74.2543 3.73897 73.8546 3.99928L73.6174 3.22953C74.1028 2.92566 74.7085 2.77372 75.42 2.77372C76.7917 2.77372 77.4842 3.49989 77.4842 4.95336V6.89392C77.4842 7.4257 77.5076 7.83794 77.5599 8.15187L76.5078 8.15076ZM76.3474 5.52648C75.0514 5.52648 74.4012 5.84152 74.4012 6.58893C74.4012 7.14193 74.7364 7.41229 75.2018 7.41229C75.7952 7.41229 76.3474 6.9576 76.3474 6.33979V5.52648ZM83.1502 8.15076L83.0956 7.30504H83.0634C82.7282 7.94408 82.1649 8.2703 81.3777 8.2703C80.1118 8.2703 79.1743 7.15311 79.1743 5.58122C79.1743 3.93336 80.1463 2.7726 81.4734 2.7726C82.176 2.7726 82.6737 3.01057 82.9542 3.48872H82.9776V0.464488H84.1456V6.73081C84.1456 7.24025 84.1578 7.71729 84.189 8.15076H83.1502ZM82.9776 5.05055C82.9776 4.31321 82.4911 3.68423 81.7485 3.68423C80.8834 3.68423 80.3545 4.45397 80.3545 5.53765C80.3545 6.6001 80.9034 7.32739 81.7251 7.32739C82.4588 7.32739 82.9776 6.68724 82.9776 5.92867V5.05055ZM91.5507 8.2703C90.0175 8.2703 89.0233 7.12071 89.0233 5.55999C89.0233 3.93336 90.0387 2.77372 91.6375 2.77372C93.1506 2.77372 94.166 3.86857 94.166 5.47397C94.1671 7.12071 93.1194 8.2703 91.5507 8.2703ZM91.5941 3.62949C90.7524 3.62949 90.2124 4.42046 90.2124 5.52648C90.2124 6.61127 90.7635 7.40224 91.583 7.40224C92.4046 7.40224 92.9546 6.55653 92.9546 5.50413C92.9569 4.43163 92.4169 3.62949 91.5941 3.62949ZM100.441 8.15076H99.2731V5.12541C99.2731 4.19367 98.9168 3.72668 98.2143 3.72668C97.5229 3.72668 97.0485 4.32326 97.0485 5.01704V8.15076H95.8806V4.38806C95.8806 3.92219 95.8695 3.42281 95.8372 2.88097H96.8637L96.9183 3.69429H96.9506C97.2634 3.13122 97.9014 2.7726 98.614 2.7726C99.7162 2.7726 100.441 3.61832 100.441 4.99469V8.15076ZM108.292 3.7602H107.008V6.31857C107.008 6.96989 107.233 7.29499 107.687 7.29499C107.893 7.29499 108.065 7.27265 108.205 7.24025L108.237 8.12953C108.011 8.21667 107.708 8.26024 107.332 8.26024C106.412 8.26024 105.862 7.7508 105.862 6.41688V3.7602H105.096V2.88209H105.862V1.91684L107.008 1.56939V2.88097H108.292V3.7602ZM114.469 8.15076H113.303V5.14775C113.303 4.20484 112.948 3.7278 112.244 3.7278C111.639 3.7278 111.076 4.14004 111.076 4.97459V8.15076H109.91V0.464488H111.076V3.62949H111.099C111.467 3.05525 111.999 2.7726 112.678 2.7726C113.789 2.7726 114.469 3.63954 114.469 5.01704V8.15076ZM120.797 5.79795H117.295C117.318 6.7956 117.976 7.35867 118.95 7.35867C119.468 7.35867 119.944 7.27153 120.365 7.10954L120.547 7.92285C120.05 8.13959 119.465 8.24795 118.785 8.24795C117.143 8.24795 116.171 7.20673 116.171 5.59239C116.171 3.97693 117.166 2.76255 118.654 2.76255C119.995 2.76255 120.837 3.7602 120.837 5.26729C120.845 5.44514 120.831 5.62327 120.797 5.79795ZM119.727 4.96341C119.727 4.1501 119.318 3.57586 118.572 3.57586C117.902 3.57586 117.372 4.16127 117.297 4.96341H119.727Z" fill="#FAF9FF"/>
</svg>
