<?xml version="1.0" encoding="UTF-8"?>
<svg id="_Слой_1" data-name="Слой 1" xmlns="http://www.w3.org/2000/svg" xmlns:xlink="http://www.w3.org/1999/xlink" viewBox="0 0 321.79 89.63">
  <defs>
    <style>
      .cls-1 {
        fill: #373643;
      }

      .cls-1, .cls-2, .cls-3, .cls-4 {
        stroke-width: 0px;
      }

      .cls-5 {
        clip-path: url(#clippath-2);
      }

      .cls-2 {
        fill: none;
      }

      .cls-6 {
        clip-path: url(#clippath-1);
      }

      .cls-7 {
        clip-path: url(#clippath-4);
      }

      .cls-3 {
        fill: #fff;
      }

      .cls-8 {
        clip-path: url(#clippath);
      }

      .cls-9 {
        clip-path: url(#clippath-3);
      }

      .cls-10 {
        clip-path: url(#clippath-5);
      }

      .cls-4 {
        fill: #f28f53;
      }
    </style>
    <clipPath id="clippath">
      <rect class="cls-2" x="271.12" y="22.72" width="29.33" height="29.33"/>
    </clipPath>
    <clipPath id="clippath-1">
      <rect class="cls-2" x="275.84" y="12.69" width="27" height="40" transform="translate(54.67 205.08) rotate(-42.75)"/>
    </clipPath>
    <clipPath id="clippath-2">
      <rect class="cls-2" x="275.84" y="12.69" width="27" height="40" transform="translate(54.67 205.08) rotate(-42.75)"/>
    </clipPath>
    <clipPath id="clippath-3">
      <rect class="cls-2" x="285.79" y="9.39" width="28" height="29.33"/>
    </clipPath>
    <clipPath id="clippath-4">
      <rect class="cls-2" x="290.06" y="-.46" width="27" height="40" transform="translate(67.41 211.28) rotate(-42.76)"/>
    </clipPath>
    <clipPath id="clippath-5">
      <rect class="cls-2" x="290.06" y="-.46" width="27" height="40" transform="translate(67.41 211.28) rotate(-42.76)"/>
    </clipPath>
  </defs>
  <rect class="cls-3" x="-7.01" y="-7.01" width="337.62" height="101.39"/>
  <g class="cls-8">
    <g class="cls-6">
      <g class="cls-5">
        <path class="cls-4" d="m299.46,23.89l-24.03-1.07c-4.65-.2-5.43,8.84.07,8.98l14.95.41-1.14,15.05c-.35,4.58,8.59,5.07,8.84.41l1.3-23.78Z"/>
      </g>
    </g>
  </g>
  <g class="cls-9">
    <g class="cls-7">
      <g class="cls-10">
        <path class="cls-4" d="m313.68,10.74l-24.03-1.07c-4.64-.2-5.42,8.84.08,8.99l14.95.4-1.15,15.05c-.34,4.58,8.59,5.07,8.84.41l1.3-23.78Z"/>
      </g>
    </g>
  </g>
  <path class="cls-1" d="m28.93,35.87c4.34,0,8.14.95,11.38,2.85,3.25,1.91,5.78,4.56,7.58,7.98,1.82,3.41,2.73,7.4,2.73,11.98s-.91,8.52-2.73,11.96c-1.81,3.43-4.33,6.09-7.58,7.98-3.24,1.88-7.03,2.81-11.38,2.81h-14.73c-1.29,0-2.41-.42-3.33-1.25-.93-.83-1.4-1.82-1.4-2.98v-37.19c0-1.15.46-2.13,1.4-2.94.93-.8,2.04-1.21,3.33-1.21h14.73Zm0,38.48c2.67,0,5.01-.65,7.04-1.96,2.03-1.32,3.6-3.15,4.73-5.48s1.69-5.07,1.69-8.23-.56-5.92-1.69-8.29c-1.13-2.39-2.7-4.23-4.73-5.54-2.03-1.32-4.38-1.98-7.04-1.98h-11.31v31.48h11.31Z"/>
  <path class="cls-1" d="m71.42,45.02c1.29,0,2.32.28,3.08.83.76.54,1.15,1.43,1.15,2.67,0,1.16-.39,2.06-1.15,2.73-.77.67-1.79,1-3.08,1-3,0-5.11,1.08-6.33,3.23-1.21,2.14-1.81,5.04-1.81,8.71v13.6c0,1.04-.39,1.91-1.15,2.6-.77.7-1.7,1.04-2.79,1.04-1.24,0-2.24-.34-3-1.04-.77-.69-1.15-1.56-1.15-2.6v-29.13c0-1.14.44-2.03,1.31-2.67.89-.65,1.83-.98,2.83-.98s1.9.31,2.71.94c.82.61,1.23,1.52,1.23,2.71v.44c1.04-1.39,2.25-2.42,3.63-3.08,1.39-.67,2.9-1,4.52-1Z"/>
  <path class="cls-1" d="m93.95,44.31c3.82,0,7.16.8,10.02,2.4,2.86,1.6,5.07,3.83,6.65,6.69,1.58,2.86,2.38,6.2,2.38,10.02-.06,3.71-.89,6.97-2.48,9.79-1.6,2.82-3.82,5.02-6.67,6.58-2.83,1.57-6.14,2.35-9.9,2.35s-7.02-.78-9.88-2.35c-2.86-1.57-5.09-3.76-6.69-6.58-1.6-2.82-2.42-6.08-2.46-9.79,0-3.82.8-7.16,2.4-10.02,1.59-2.86,3.82-5.09,6.69-6.69,2.86-1.59,6.17-2.4,9.94-2.4Zm0,30.69c3.25,0,5.84-1.07,7.77-3.21,1.93-2.15,2.9-4.94,2.9-8.38s-.97-6.4-2.9-8.63c-1.93-2.22-4.52-3.33-7.77-3.33s-5.77,1.11-7.73,3.33c-1.96,2.22-2.94,5.1-2.94,8.63s.98,6.22,2.94,8.38c1.96,2.14,4.53,3.21,7.73,3.21Z"/>
  <path class="cls-1" d="m137.3,44.31c3.34,0,6.19.73,8.52,2.19,2.33,1.45,4.11,3.46,5.35,6.04,1.25,2.57,1.88,5.57,1.88,9v16.17c0,1.1-.36,1.99-1.08,2.69-.71.7-1.71,1.04-3,1.04-1.2,0-2.18-.34-2.94-1.04-.77-.69-1.15-1.59-1.15-2.69v-16.31c0-2.94-.7-5.33-2.1-7.17-1.41-1.84-3.64-2.77-6.69-2.77-.91,0-1.99.25-3.25.75-1.27.5-2.51,1.25-3.73,2.25-1.22,1-2.23,2.27-3.02,3.79-.78,1.53-1.17,3.34-1.17,5.44v14.1c0,2.43-1.31,3.65-3.94,3.65-1.24,0-2.25-.32-3.04-.96-.78-.65-1.17-1.55-1.17-2.69v-29.13c0-1.19.42-2.09,1.25-2.71.83-.63,1.77-.94,2.81-.94s1.94.31,2.79.94c.86.61,1.29,1.47,1.29,2.56v.5c2.05-1.9,4.18-3.16,6.38-3.77,2.19-.63,4.19-.94,6-.94Z"/>
  <path class="cls-1" d="m168.99,68.77v9.02c0,1.24-.45,2.16-1.33,2.75-.88.6-1.81.9-2.81.9-1.06,0-2-.3-2.83-.9-.83-.59-1.25-1.49-1.25-2.69v-38.27c0-1.09.4-1.98,1.21-2.67.82-.69,1.8-1.04,2.94-1.04h14.6c3.96,0,7.34.7,10.15,2.1,2.82,1.41,4.96,3.36,6.44,5.88,1.48,2.5,2.23,5.45,2.23,8.83,0,4.81-1.68,8.69-5.02,11.65-3.33,2.96-8,4.44-14,4.44h-10.31Zm0-25.81v18.73h10.31c3.53,0,6.22-.82,8.08-2.46,1.86-1.65,2.79-3.83,2.79-6.54,0-2.96-.93-5.32-2.77-7.08-1.83-1.76-4.45-2.65-7.83-2.65h-10.58Z"/>
  <path class="cls-1" d="m210.41,39.66c0,1.18-.45,2.07-1.33,2.67-.88.6-1.81.9-2.81.9-1.06,0-2.02-.3-2.88-.9-.85-.59-1.27-1.48-1.27-2.67v-.94c0-1.23.42-2.14,1.27-2.71.86-.58,1.82-.88,2.88-.88,1,0,1.94.29,2.81.88.89.57,1.33,1.47,1.33,2.71v.94Zm-8.23,8.85c0-1.14.44-2.01,1.31-2.6.89-.59,1.81-.9,2.77-.9s1.93.3,2.79.9c.86.6,1.29,1.45,1.29,2.54v29.48c0,1.2-.43,2.08-1.29,2.65-.86.57-1.79.85-2.79.85s-1.89-.28-2.77-.85c-.88-.57-1.31-1.45-1.31-2.65v-29.42Z"/>
  <path class="cls-1" d="m222.08,77.85c0,.96-.4,1.8-1.19,2.52-.79.71-1.76,1.06-2.9,1.06-1.2,0-2.18-.35-2.94-1.06-.77-.72-1.15-1.56-1.15-2.52v-39.13c0-.96.38-1.79,1.15-2.5.76-.72,1.74-1.08,2.94-1.08,1.14,0,2.1.36,2.9,1.08.79.71,1.19,1.54,1.19,2.5v39.13Z"/>
  <path class="cls-1" d="m250.08,45.45c3.59,1.31,6.45,3.21,8.59,5.68,2.14,2.48,3.45,5.33,3.95,8.56.51,3.23.11,6.64-1.2,10.23-1.32,3.46-3.22,6.25-5.68,8.35-2.47,2.1-5.31,3.4-8.52,3.9-3.2.51-6.57.11-10.1-1.18-3.5-1.28-6.32-3.14-8.47-5.59-2.15-2.45-3.5-5.28-4.03-8.48-.54-3.19-.19-6.54,1.04-10.04,1.31-3.59,3.2-6.45,5.68-8.59,2.48-2.14,5.33-3.47,8.57-3.99,3.23-.52,6.62-.14,10.16,1.15Zm-10.51,28.83c3.05,1.11,5.85,1,8.4-.35,2.55-1.36,4.41-3.65,5.59-6.88s1.28-6.35.23-9.1c-1.06-2.75-3.11-4.68-6.16-5.79s-5.8-.93-8.4.48c-2.6,1.42-4.51,3.78-5.71,7.1-1.18,3.22-1.21,6.18-.11,8.87,1.11,2.68,3.16,4.57,6.16,5.66Z"/>
  <path class="cls-1" d="m282.51,74.64c1.09-.63,2.08-.84,2.96-.65.89.2,1.6.61,2.15,1.25.55.64.83,1.39.83,2.25,0,.63-.2,1.25-.58,1.88-.38.61-.97,1.14-1.77,1.56-1.04.57-1.99.91-2.85,1.02-.86.13-1.87.19-3.02.19-3.1,0-5.48-.64-7.15-1.92-1.67-1.29-2.81-2.96-3.44-5-.61-2.05-.92-4.23-.92-6.52v-16.9h-2.73c-1.33,0-2.33-.35-2.98-1.06-.64-.72-.96-1.48-.96-2.29,0-.86.33-1.65,1-2.35.67-.72,1.65-1.08,2.94-1.08h2.73v-6.15c0-1.25.4-2.18,1.21-2.79.8-.63,1.73-.94,2.79-.94,1,0,1.93.31,2.79.94.86.61,1.29,1.54,1.29,2.79v6.15h5.56c1.25,0,2.21.36,2.88,1.08.67.71,1,1.49,1,2.35s-.33,1.64-1,2.33c-.67.68-1.63,1.02-2.88,1.02h-5.56v16.9c0,1.04.07,2.06.21,3.04.14.97.46,1.79.96,2.44.5.64,1.25.96,2.25.96.39,0,.8-.05,1.25-.17.46-.13.8-.23,1.04-.33Z"/>
</svg>