<?xml version="1.0" encoding="UTF-8"?>
<svg id="_Слой_1" data-name="Слой 1" xmlns="http://www.w3.org/2000/svg" viewBox="0 0 32 32">
  <defs>
    <style>
      .cls-1 {
        fill: #010101;
        stroke-width: 0px;
      }
    </style>
  </defs>
  <circle class="cls-1" cx="16" cy="16" r="2"/>
  <path class="cls-1" d="m23.78,15.48c-1.26-3.22-4.32-5.37-7.78-5.48-3.45.11-6.51,2.26-7.78,5.48l-.22.52.22.52c1.26,3.22,4.32,5.37,7.78,5.48,3.45-.11,6.51-2.26,7.78-5.48l.22-.52-.22-.52Zm-7.78,4.52c-2.21,0-4-1.79-4-4s1.79-4,4-4,4,1.79,4,4c0,2.21-1.79,4-4,4Z"/>
  <path class="cls-1" d="m28.5,8.14L16.5,1.14c-.31-.18-.7-.18-1.01,0L3.5,8.14c-.31.18-.5.51-.5.86v14c0,.36.19.68.5.86l12,7c.31.18.7.18,1.01,0l12-7c.31-.18.5-.51.5-.86v-14c0-.36-.19-.68-.5-.86Zm-1.5,14.29l-11,6.42-11-6.42v-12.85l11-6.42,11,6.42v12.85Z"/>
</svg>