<?xml version="1.0" encoding="UTF-8"?>
<svg id="_Слой_1" data-name="Слой 1" xmlns="http://www.w3.org/2000/svg" viewBox="0 0 32 32">
  <defs>
    <style>
      .cls-1 {
        fill: #010101;
        stroke-width: 0px;
      }
    </style>
  </defs>
  <path class="cls-1" d="m27,24c-.45,0-.89.11-1.29.3l-4.3-4.3h-3.41v2h2.59l3.71,3.71c-.2.4-.3.84-.3,1.29,0,1.66,1.34,3,3,3s3-1.34,3-3-1.34-3-3-3Zm0,4c-.55,0-1-.45-1-1s.45-1,1-1,1,.45,1,1c0,.55-.45,1-1,1Z"/>
  <path class="cls-1" d="m27,13c-1.27,0-2.39.8-2.82,2h-6.18v2h6.18c.56,1.56,2.27,2.37,3.83,1.82,1.56-.56,2.37-2.27,1.82-3.83-.43-1.19-1.56-1.99-2.83-1.99Zm0,4c-.55,0-1-.45-1-1s.45-1,1-1,1,.45,1,1c0,.55-.45,1-1,1Z"/>
  <path class="cls-1" d="m27,2c-1.66,0-3,1.34-3,3,0,.48.12.95.35,1.37l-3.75,3.63h-2.6v2h3.4l4.4-4.25c1.52.66,3.29-.03,3.95-1.55.66-1.52-.03-3.29-1.55-3.95-.38-.16-.79-.25-1.2-.25Zm0,4c-.55,0-1-.45-1-1s.45-1,1-1,1,.45,1,1c0,.55-.45,1-1,1Z"/>
  <path class="cls-1" d="m18,6h2v-2h-2c-1.15,0-2.25.51-3,1.38-.75-.87-1.85-1.38-3-1.38h-1c-4.97,0-8.99,4.03-9,9v6c0,4.97,4.03,8.99,9,9h1c1.15,0,2.25-.51,3-1.38.75.87,1.85,1.38,3,1.38h2v-2h-2c-1.1,0-2-.9-2-2V8c0-1.1.9-2,2-2Zm-6,20h-1c-3.48,0-6.42-2.56-6.92-6h1.92v-2h-2v-4h3c1.66,0,3-1.34,3-3v-2h-2v2c0,.55-.45,1-1,1h-2.92c.5-3.44,3.44-5.99,6.92-6h1c1.1,0,2,.9,2,2v4h-2v2h2v4h-2c-1.66,0-3,1.34-3,3v2h2v-2c0-.55.45-1,1-1h2v4c0,1.1-.9,2-2,2Z"/>
</svg>