<?xml version="1.0" encoding="UTF-8"?>
<svg id="_Слой_1" data-name="Слой 1" xmlns="http://www.w3.org/2000/svg" viewBox="0 0 32 32">
  <defs>
    <style>
      .cls-1 {
        fill: #f28f52;
        stroke-width: 0px;
      }
    </style>
  </defs>
  <rect class="cls-1" x="15" y="10.9" width="2" height="18"/>
  <path class="cls-1" d="m11.33,17.12c-2.88-2.58-3.13-7-.56-9.88.17-.2.36-.38.56-.56l1.34,1.49c-2.06,1.84-2.24,5-.4,7.06.13.14.26.27.4.4l-1.34,1.49Z"/>
  <path class="cls-1" d="m20.67,17.12l-1.34-1.49c2.06-1.84,2.24-5,.4-7.06-.13-.14-.26-.27-.4-.4l1.34-1.49c2.88,2.58,3.13,7,.56,9.88-.17.2-.36.38-.56.56Z"/>
  <path class="cls-1" d="m8.4,20.7c-4.86-3.65-5.85-10.54-2.2-15.4.63-.83,1.37-1.57,2.2-2.2l1.2,1.6c-3.98,2.98-4.78,8.62-1.8,12.6.51.68,1.12,1.29,1.8,1.8l-1.2,1.6Z"/>
  <path class="cls-1" d="m23.6,20.7l-1.2-1.6c3.98-2.98,4.78-8.62,1.8-12.6-.51-.68-1.12-1.29-1.8-1.8l1.2-1.6c4.86,3.65,5.85,10.54,2.2,15.4-.63.83-1.37,1.57-2.2,2.2Z"/>
</svg>