<?xml version="1.0" encoding="UTF-8"?>
<svg id="_Слой_1" data-name="Слой 1" xmlns="http://www.w3.org/2000/svg" viewBox="0 0 32 32">
  <defs>
    <style>
      .cls-1 {
        fill: #f28f52;
        stroke-width: 0px;
      }
    </style>
  </defs>
  <path class="cls-1" d="m30,19h-4v-4h-2v9h-16V8h9v-2h-4V2h-2v4h-3c-1.1,0-2,.9-2,2v3H2v2h4v6H2v2h4v3c0,1.1.9,2,2,2h3v4h2v-4h6v4h2v-4h3c1.1,0,2-.9,2-2v-3h4v-2Z"/>
  <path class="cls-1" d="m26,2c-2.21,0-4,1.79-4,4,0,.71.2,1.41.57,2.02l-2.98,2.98h-8.59v10h10v-8.59l2.98-2.98c.61.37,1.31.56,2.02.57,2.21,0,4-1.79,4-4s-1.79-4-4-4Zm-7,17h-6v-6h6v6Zm7-11c-1.1,0-2-.9-2-2s.9-2,2-2,2,.9,2,2c0,1.1-.9,2-2,2Z"/>
</svg>