<?xml version="1.0" encoding="UTF-8"?>
<svg id="_Слой_1" data-name="Слой 1" xmlns="http://www.w3.org/2000/svg" viewBox="0 0 32 32">
  <defs>
    <style>
      .cls-1 {
        fill: #f28f52;
        stroke-width: 0px;
      }
    </style>
  </defs>
  <path class="cls-1" d="m9.41,24l4.26-4.26-1.41-1.41-4.26,4.26-.79-.79c-.39-.39-1.02-.39-1.41,0h0s-4,4-4,4c-.39.39-.39,1.02,0,1.41,0,0,0,0,0,0l3,3c.39.39,1.02.39,1.41,0,0,0,0,0,0,0l4-4c.39-.39.39-1.02,0-1.41,0,0,0,0,0,0l-.79-.79Zm-3.91,4.09l-1.59-1.59,2.59-2.59,1.59,1.59-2.59,2.59Z"/>
  <path class="cls-1" d="m24.5,29.5c-3.31,0-6-2.69-6-6,0-.52.07-1.04.21-1.55l-8.66-8.66c-.5.14-1.02.21-1.55.21-3.3.01-5.99-2.65-6-5.95,0-.76.14-1.52.42-2.23l.56-1.42,3.31,3.31c.4.38,1.02.38,1.41,0,.39-.39.39-1.02,0-1.41,0,0,0,0,0,0l-3.31-3.31,1.42-.56c3.07-1.22,6.54.28,7.76,3.35.28.71.42,1.47.42,2.23,0,.52-.07,1.04-.21,1.55l8.66,8.66c.5-.14,1.02-.21,1.55-.21,3.3-.01,5.99,2.65,6,5.95,0,.76-.14,1.52-.42,2.23l-.56,1.42-3.31-3.31c-.4-.38-1.02-.38-1.41,0-.39.39-.39,1.02,0,1.41,0,0,0,0,0,0l3.31,3.31-1.42.56c-.69.28-1.44.42-2.18.42ZM10.56,10.98l10.46,10.46-.24.61c-.82,2.04.18,4.35,2.21,5.17.4.16.82.25,1.25.28l-.87-.87c-1.17-1.17-1.17-3.07,0-4.24h0c1.19-1.13,3.06-1.13,4.24,0l.87.87c-.12-2.19-2-3.87-4.2-3.74-.43.02-.85.12-1.25.28l-.61.24-10.46-10.46.24-.61c.82-2.04-.18-4.35-2.21-5.17-.4-.16-.82-.25-1.25-.28l.87.87c1.17,1.17,1.17,3.07,0,4.24h0c-1.19,1.13-3.06,1.13-4.24,0l-.87-.87c.12,2.19,2,3.87,4.19,3.74.43-.02.85-.12,1.25-.28l.61-.24Z"/>
  <path class="cls-1" d="m29.62,2.35c-1.19-1.13-3.06-1.13-4.24,0l-7.48,7.48,1.41,1.41,7.48-7.48c.4-.38,1.02-.38,1.41,0,.39.39.39,1.02,0,1.41l-7.48,7.48,1.41,1.41,7.48-7.48c1.17-1.17,1.17-3.07,0-4.24Z"/>
</svg>