<?xml version="1.0" encoding="UTF-8"?>
<svg id="_Слой_1" data-name="Слой 1" xmlns="http://www.w3.org/2000/svg" viewBox="0 0 32 32">
  <defs>
    <style>
      .cls-1 {
        fill: #f28f52;
        stroke-width: 0px;
      }
    </style>
  </defs>
  <path class="cls-1" d="m8,4v4h-4v-4h4M2,2v8h8V2H2Z"/>
  <path class="cls-1" d="m18,7v4h-4v-4h4m-6-2v8h8V5h-8Z"/>
  <path class="cls-1" d="m8,16v4h-4v-4h4m-6-2v8h8v-8H2Z"/>
  <path class="cls-1" d="m22,10v6h-6v6h-6v8h20V10h-8Zm-4,8h4v4h-4v-4Zm-2,10h-4v-4h4v4Zm6,0h-4v-4h4v4Zm6,0h-4v-4h4v4Zm0-6h-4v-4h4v4Zm-4-6v-4h4v4h-4Z"/>
</svg>