<?xml version="1.0" encoding="UTF-8"?>
<svg id="_Слой_1" data-name="Слой 1" xmlns="http://www.w3.org/2000/svg" viewBox="0 0 32 32">
  <defs>
    <style>
      .cls-1 {
        fill: #f28f52;
        stroke-width: 0px;
      }
    </style>
  </defs>
  <path class="cls-1" d="m7,12c-2.76,0-5-2.24-5-5S4.24,2,7,2s5,2.24,5,5h-2c0-1.66-1.34-3-3-3s-3,1.34-3,3,1.34,3,3,3v2Z"/>
  <path class="cls-1" d="m25,12v-2c1.66,0,3-1.34,3-3s-1.34-3-3-3-3,1.34-3,3h-2c0-2.76,2.24-5,5-5s5,2.24,5,5-2.24,5-5,5Z"/>
  <path class="cls-1" d="m7,30c-2.76,0-5-2.24-5-5s2.24-5,5-5v2c-1.66,0-3,1.34-3,3s1.34,3,3,3,3-1.34,3-3h2c0,2.76-2.24,5-5,5Z"/>
  <path class="cls-1" d="m25,30c-2.76,0-5-2.24-5-5h2c0,1.66,1.34,3,3,3s3-1.34,3-3-1.34-3-3-3v-2c2.76,0,5,2.24,5,5s-2.24,5-5,5Z"/>
  <path class="cls-1" d="m20,18.59v-5.17l5.71-5.71c.4-.38.41-1.02.02-1.41-.38-.4-1.02-.41-1.41-.02,0,0-.02.02-.02.02l-4.5,4.5c-.65-2.1-2.88-3.27-4.97-2.61-1.25.39-2.22,1.37-2.61,2.61l-4.5-4.5c-.39-.39-1.02-.39-1.41,0h0c-.39.39-.39,1.02,0,1.41h0s5.71,5.71,5.71,5.71v5.17l-5.71,5.71c-.39.39-.39,1.02,0,1.41,0,0,0,0,0,0h0c.39.39,1.02.39,1.41,0h0s4.5-4.5,4.5-4.5c.65,2.1,2.88,3.27,4.97,2.61,1.25-.39,2.22-1.37,2.61-2.61l4.5,4.5c.4.38,1.03.37,1.41-.02.37-.39.37-1,0-1.39l-5.71-5.71Zm-2,1.41c0,1.1-.9,2-2,2s-2-.9-2-2v-8c0-1.1.9-2,2-2s2,.9,2,2v8Z"/>
</svg>